<?xml version="1.0" encoding="UTF-8" standalone="no"?><!DOCTYPE svg PUBLIC "-//W3C//DTD SVG 1.1//EN" "http://www.w3.org/Graphics/SVG/1.1/DTD/svg11.dtd"><svg width="100%" height="100%" viewBox="0 0 842 596" version="1.1" xmlns="http://www.w3.org/2000/svg" xmlns:xlink="http://www.w3.org/1999/xlink" xml:space="preserve" xmlns:serif="http://www.serif.com/" style="fill-rule:evenodd;clip-rule:evenodd;stroke-miterlimit:10;"><g id="Layer-1" serif:id="Layer 1"><rect x="601.37" y="165.831" width="80.782" height="180.802" style="fill:#fff;stroke:#231f20;stroke-width:1px;"/><path d="M672.684,196.03l-29.568,0l13.125,-29.884l3.317,0l13.126,29.884Z" style="fill:#fff;fill-rule:nonzero;stroke:#231f20;stroke-width:1px;"/><path d="M657.899,187.995c0,-0 9.601,3.926 9.601,12.204l0,57.853l-19.202,-0l0,-57.853c0,-8.278 9.601,-12.204 9.601,-12.204Z" style="fill:#fff;fill-rule:nonzero;stroke:#231f20;stroke-width:1px;"/><rect x="648.299" y="251.56" width="19.201" height="6.491" style="fill:#fff;stroke:#231f20;stroke-width:1px;"/><path d="M657.899,205.012c0,0 2.188,0.895 2.188,2.782l0,43.766l-4.377,0l0,-43.766c0,-1.887 2.189,-2.782 2.189,-2.782Z" style="fill:#fff;fill-rule:nonzero;stroke:#231f20;stroke-width:1px;"/><path d="M662.607,208.273c0,-0 2.189,0.895 2.189,2.783l0,40.505l-4.378,-0l0,-40.505c0,-1.888 2.189,-2.783 2.189,-2.783Z" style="fill:#fff;fill-rule:nonzero;stroke:#231f20;stroke-width:1px;"/><path d="M653.19,208.273c0,-0 2.189,0.895 2.189,2.783l0,40.505l-4.377,-0l0,-40.505c0,-1.888 2.188,-2.783 2.188,-2.783Z" style="fill:#fff;fill-rule:nonzero;stroke:#231f20;stroke-width:1px;"/><path d="M660.852,195.934c-0,0.999 -0.811,1.809 -1.81,1.809c-0.435,-0 -0.831,-0.16 -1.142,-0.417c-0.313,0.257 -0.707,0.417 -1.143,0.417c-1,-0 -1.809,-0.81 -1.809,-1.809c-0,-0.769 0.482,-1.422 1.159,-1.684c0.082,-0.923 0.849,-1.649 1.793,-1.649c0.944,-0 1.71,0.726 1.793,1.649c0.677,0.262 1.159,0.915 1.159,1.684" style="fill:#fff;fill-rule:nonzero;"/><path d="M660.852,195.934c-0,0.999 -0.811,1.809 -1.81,1.809c-0.435,-0 -0.831,-0.16 -1.142,-0.417c-0.313,0.257 -0.707,0.417 -1.143,0.417c-1,-0 -1.809,-0.81 -1.809,-1.809c-0,-0.769 0.482,-1.422 1.159,-1.684c0.082,-0.923 0.849,-1.649 1.793,-1.649c0.944,-0 1.71,0.726 1.793,1.649c0.677,0.262 1.159,0.915 1.159,1.684Z" style="fill:none;fill-rule:nonzero;stroke:#231f20;stroke-width:1px;"/><path d="M650.846,201.358c-0,-1 0.81,-1.81 1.809,-1.81c0.436,0 0.831,0.161 1.142,0.417c0.313,-0.256 0.707,-0.417 1.143,-0.417c1,0 1.809,0.81 1.809,1.81c-0,0.769 -0.481,1.422 -1.159,1.684c-0.082,0.922 -0.848,1.649 -1.792,1.649c-0.944,0 -1.711,-0.727 -1.794,-1.649c-0.677,-0.262 -1.158,-0.915 -1.158,-1.684" style="fill:#fff;fill-rule:nonzero;"/><path d="M650.846,201.358c-0,-1 0.81,-1.81 1.809,-1.81c0.436,0 0.831,0.161 1.142,0.417c0.313,-0.256 0.707,-0.417 1.143,-0.417c1,0 1.809,0.81 1.809,1.81c-0,0.769 -0.481,1.422 -1.159,1.684c-0.082,0.922 -0.848,1.649 -1.792,1.649c-0.944,0 -1.711,-0.727 -1.794,-1.649c-0.677,-0.262 -1.158,-0.915 -1.158,-1.684Z" style="fill:none;fill-rule:nonzero;stroke:#231f20;stroke-width:1px;"/><path d="M659.049,201.358c-0,-1 0.811,-1.81 1.81,-1.81c0.435,0 0.83,0.161 1.142,0.417c0.313,-0.256 0.706,-0.417 1.143,-0.417c0.999,0 1.809,0.81 1.809,1.81c-0,0.769 -0.482,1.422 -1.159,1.684c-0.083,0.922 -0.849,1.649 -1.793,1.649c-0.944,0 -1.711,-0.727 -1.793,-1.649c-0.677,-0.262 -1.159,-0.915 -1.159,-1.684" style="fill:#fff;fill-rule:nonzero;"/><path d="M659.049,201.358c-0,-1 0.811,-1.81 1.81,-1.81c0.435,0 0.83,0.161 1.142,0.417c0.313,-0.256 0.706,-0.417 1.143,-0.417c0.999,0 1.809,0.81 1.809,1.81c-0,0.769 -0.482,1.422 -1.159,1.684c-0.083,0.922 -0.849,1.649 -1.793,1.649c-0.944,0 -1.711,-0.727 -1.793,-1.649c-0.677,-0.262 -1.159,-0.915 -1.159,-1.684Z" style="fill:none;fill-rule:nonzero;stroke:#231f20;stroke-width:1px;"/><path d="M640.242,196.03l-29.568,0l13.126,-29.884l3.317,0l13.125,29.884Z" style="fill:#fff;fill-rule:nonzero;stroke:#231f20;stroke-width:1px;"/><path d="M625.458,187.995c0,-0 9.601,3.926 9.601,12.204l0,57.853l-19.202,-0l0,-57.853c0,-8.278 9.601,-12.204 9.601,-12.204Z" style="fill:#fff;fill-rule:nonzero;stroke:#231f20;stroke-width:1px;"/><rect x="615.857" y="251.56" width="19.201" height="6.491" style="fill:#fff;stroke:#231f20;stroke-width:1px;"/><path d="M625.458,205.012c0,0 2.189,0.895 2.189,2.782l0,43.766l-4.377,0l0,-43.766c0,-1.887 2.188,-2.782 2.188,-2.782Z" style="fill:#fff;fill-rule:nonzero;stroke:#231f20;stroke-width:1px;"/><path d="M630.167,208.273c-0,-0 2.188,0.895 2.188,2.783l-0,40.505l-4.377,-0l-0,-40.505c-0,-1.888 2.189,-2.783 2.189,-2.783Z" style="fill:#fff;fill-rule:nonzero;stroke:#231f20;stroke-width:1px;"/><path d="M620.75,208.273c0,-0 2.188,0.895 2.188,2.783l0,40.505l-4.377,-0l0,-40.505c0,-1.888 2.189,-2.783 2.189,-2.783Z" style="fill:#fff;fill-rule:nonzero;stroke:#231f20;stroke-width:1px;"/><path d="M628.41,195.934c0,0.999 -0.811,1.809 -1.809,1.809c-0.436,-0 -0.831,-0.16 -1.143,-0.417c-0.312,0.257 -0.706,0.417 -1.143,0.417c-0.999,-0 -1.809,-0.81 -1.809,-1.809c0,-0.769 0.482,-1.422 1.159,-1.684c0.083,-0.923 0.849,-1.649 1.793,-1.649c0.944,-0 1.711,0.726 1.793,1.649c0.677,0.262 1.159,0.915 1.159,1.684" style="fill:#fff;fill-rule:nonzero;"/><path d="M628.41,195.934c0,0.999 -0.811,1.809 -1.809,1.809c-0.436,-0 -0.831,-0.16 -1.143,-0.417c-0.312,0.257 -0.706,0.417 -1.143,0.417c-0.999,-0 -1.809,-0.81 -1.809,-1.809c0,-0.769 0.482,-1.422 1.159,-1.684c0.083,-0.923 0.849,-1.649 1.793,-1.649c0.944,-0 1.711,0.726 1.793,1.649c0.677,0.262 1.159,0.915 1.159,1.684Z" style="fill:none;fill-rule:nonzero;stroke:#231f20;stroke-width:1px;"/><path d="M618.404,201.358c0,-1 0.811,-1.81 1.81,-1.81c0.435,0 0.83,0.161 1.142,0.417c0.313,-0.256 0.707,-0.417 1.143,-0.417c0.999,0 1.809,0.81 1.809,1.81c0,0.769 -0.482,1.422 -1.159,1.684c-0.082,0.922 -0.849,1.649 -1.793,1.649c-0.944,0 -1.711,-0.727 -1.793,-1.649c-0.677,-0.262 -1.159,-0.915 -1.159,-1.684" style="fill:#fff;fill-rule:nonzero;"/><path d="M618.404,201.358c0,-1 0.811,-1.81 1.81,-1.81c0.435,0 0.83,0.161 1.142,0.417c0.313,-0.256 0.707,-0.417 1.143,-0.417c0.999,0 1.809,0.81 1.809,1.81c0,0.769 -0.482,1.422 -1.159,1.684c-0.082,0.922 -0.849,1.649 -1.793,1.649c-0.944,0 -1.711,-0.727 -1.793,-1.649c-0.677,-0.262 -1.159,-0.915 -1.159,-1.684Z" style="fill:none;fill-rule:nonzero;stroke:#231f20;stroke-width:1px;"/><path d="M626.608,201.358c0,-1 0.81,-1.81 1.809,-1.81c0.436,0 0.831,0.161 1.142,0.417c0.313,-0.256 0.707,-0.417 1.143,-0.417c1,0 1.809,0.81 1.809,1.81c0,0.769 -0.482,1.422 -1.159,1.684c-0.082,0.922 -0.848,1.649 -1.792,1.649c-0.945,0 -1.711,-0.727 -1.793,-1.649c-0.678,-0.262 -1.159,-0.915 -1.159,-1.684" style="fill:#fff;fill-rule:nonzero;"/><path d="M626.608,201.358c0,-1 0.81,-1.81 1.809,-1.81c0.436,0 0.831,0.161 1.142,0.417c0.313,-0.256 0.707,-0.417 1.143,-0.417c1,0 1.809,0.81 1.809,1.81c0,0.769 -0.482,1.422 -1.159,1.684c-0.082,0.922 -0.848,1.649 -1.792,1.649c-0.945,0 -1.711,-0.727 -1.793,-1.649c-0.678,-0.262 -1.159,-0.915 -1.159,-1.684Z" style="fill:none;fill-rule:nonzero;stroke:#231f20;stroke-width:1px;"/><path d="M647.646,165.419l0,-15.814c0,-1.335 -1.082,-2.417 -2.418,-2.417l-6.522,-0c-1.334,-0 -2.416,1.082 -2.416,2.417l-0,15.814l11.357,-0Z" style="fill:#fff;fill-rule:nonzero;stroke:#231f20;stroke-width:1px;"/><path d="M647.646,161.99l-11.356,-0" style="fill:none;fill-rule:nonzero;stroke:#231f20;stroke-width:1px;"/><path d="M647.646,152.494l-11.356,-0" style="fill:none;fill-rule:nonzero;stroke:#231f20;stroke-width:1px;"/><path d="M643.103,136.203l-2.272,-0c-0.992,-0 -1.796,0.805 -1.796,1.797l0,9.192l5.865,-0l-0,-9.192c-0,-0.992 -0.804,-1.797 -1.798,-1.797Z" style="fill:#fff;fill-rule:nonzero;stroke:#231f20;stroke-width:1px;"/><path d="M643.504,136.203l-3.072,-0l0.554,-16.088c0.019,-0.529 0.453,-0.948 0.982,-0.948c0.528,-0 0.962,0.419 0.98,0.948l0.556,16.088Z" style="fill:#fff;fill-rule:nonzero;stroke:#231f20;stroke-width:1px;"/><path d="M643.317,124.939l-2.7,-0c-0.514,-0 -0.931,-0.417 -0.931,-0.931c0,-0.514 0.417,-0.931 0.931,-0.931l2.7,-0c0.514,-0 0.931,0.417 0.931,0.931c0,0.514 -0.417,0.931 -0.931,0.931Z" style="fill:#fff;fill-rule:nonzero;stroke:#231f20;stroke-width:1px;"/><path d="M612.987,165.419l0,-15.814c0,-1.335 -1.082,-2.417 -2.417,-2.417l-6.522,-0c-1.335,-0 -2.418,1.082 -2.418,2.417l0,15.814l11.357,-0Z" style="fill:#fff;fill-rule:nonzero;stroke:#231f20;stroke-width:1px;"/><path d="M612.987,161.99l-11.357,-0" style="fill:none;fill-rule:nonzero;stroke:#231f20;stroke-width:1px;"/><path d="M612.987,152.494l-11.357,-0" style="fill:none;fill-rule:nonzero;stroke:#231f20;stroke-width:1px;"/><path d="M608.444,136.203l-2.271,-0c-0.993,-0 -1.796,0.805 -1.796,1.797l0,9.192l5.864,-0l0,-9.192c0,-0.992 -0.805,-1.797 -1.797,-1.797Z" style="fill:#fff;fill-rule:nonzero;stroke:#231f20;stroke-width:1px;"/><path d="M608.845,136.203l-3.072,-0l0.555,-16.088c0.019,-0.529 0.453,-0.948 0.981,-0.948c0.529,-0 0.963,0.419 0.981,0.948l0.555,16.088Z" style="fill:#fff;fill-rule:nonzero;stroke:#231f20;stroke-width:1px;"/><path d="M608.658,124.939l-2.699,-0c-0.514,-0 -0.931,-0.417 -0.931,-0.931c0,-0.514 0.417,-0.931 0.931,-0.931l2.699,-0c0.515,-0 0.932,0.417 0.932,0.931c0,0.514 -0.417,0.931 -0.932,0.931Z" style="fill:#fff;fill-rule:nonzero;stroke:#231f20;stroke-width:1px;"/><path d="M682.305,165.419l-0,-15.814c-0,-1.335 -1.082,-2.417 -2.418,-2.417l-6.522,-0c-1.335,-0 -2.417,1.082 -2.417,2.417l-0,15.814l11.357,-0Z" style="fill:#fff;fill-rule:nonzero;stroke:#231f20;stroke-width:1px;"/><path d="M682.305,161.99l-11.357,-0" style="fill:none;fill-rule:nonzero;stroke:#231f20;stroke-width:1px;"/><path d="M682.305,152.494l-11.357,-0" style="fill:none;fill-rule:nonzero;stroke:#231f20;stroke-width:1px;"/><path d="M677.761,136.203l-2.271,-0c-0.992,-0 -1.796,0.805 -1.796,1.797l-0,9.192l5.865,-0l-0,-9.192c-0,-0.992 -0.805,-1.797 -1.798,-1.797Z" style="fill:#fff;fill-rule:nonzero;stroke:#231f20;stroke-width:1px;"/><path d="M678.162,136.203l-3.072,-0l0.554,-16.088c0.019,-0.529 0.453,-0.948 0.982,-0.948c0.528,-0 0.963,0.419 0.98,0.948l0.556,16.088Z" style="fill:#fff;fill-rule:nonzero;stroke:#231f20;stroke-width:1px;"/><path d="M677.976,124.939l-2.699,-0c-0.515,-0 -0.931,-0.417 -0.931,-0.931c-0,-0.514 0.416,-0.931 0.931,-0.931l2.699,-0c0.515,-0 0.931,0.417 0.931,0.931c-0,0.514 -0.416,0.931 -0.931,0.931Z" style="fill:#fff;fill-rule:nonzero;stroke:#231f20;stroke-width:1px;"/><path d="M663.666,165.419l0,-13.142c0,-1.109 -0.899,-2.009 -2.009,-2.009l-5.421,-0c-1.109,-0 -2.008,0.9 -2.008,2.009l0,13.142l9.438,-0Z" style="fill:#fff;fill-rule:nonzero;stroke:#231f20;stroke-width:1px;"/><path d="M663.666,162.569l-9.438,-0" style="fill:none;fill-rule:nonzero;stroke:#231f20;stroke-width:1px;"/><path d="M663.666,154.678l-9.438,-0" style="fill:none;fill-rule:nonzero;stroke:#231f20;stroke-width:1px;"/><path d="M659.89,141.138l-1.887,0c-0.825,0 -1.493,0.669 -1.493,1.494l-0,7.639l4.874,0l-0,-7.639c-0,-0.825 -0.669,-1.494 -1.494,-1.494Z" style="fill:#fff;fill-rule:nonzero;stroke:#231f20;stroke-width:1px;"/><path d="M660.223,141.138l-2.553,0l0.462,-13.37c0.015,-0.439 0.375,-0.788 0.815,-0.788c0.439,0 0.799,0.349 0.815,0.788l0.461,13.37Z" style="fill:#fff;fill-rule:nonzero;stroke:#231f20;stroke-width:1px;"/><path d="M660.068,131.778l-2.244,-0c-0.427,-0 -0.774,-0.347 -0.774,-0.773l0,-0.001c0,-0.427 0.347,-0.773 0.774,-0.773l2.244,-0c0.428,-0 0.773,0.346 0.773,0.773l0,0.001c0,0.426 -0.345,0.773 -0.773,0.773Z" style="fill:#fff;fill-rule:nonzero;stroke:#231f20;stroke-width:1px;"/><path d="M629.707,165.419l0,-13.142c0,-1.109 -0.898,-2.009 -2.009,-2.009l-5.421,-0c-1.109,-0 -2.008,0.9 -2.008,2.009l0,13.142l9.438,-0Z" style="fill:#fff;fill-rule:nonzero;stroke:#231f20;stroke-width:1px;"/><path d="M629.707,162.569l-9.438,-0" style="fill:none;fill-rule:nonzero;stroke:#231f20;stroke-width:1px;"/><path d="M629.707,154.678l-9.438,-0" style="fill:none;fill-rule:nonzero;stroke:#231f20;stroke-width:1px;"/><path d="M625.932,141.138l-1.887,0c-0.825,0 -1.494,0.669 -1.494,1.494l-0,7.639l4.874,0l-0,-7.639c-0,-0.825 -0.668,-1.494 -1.493,-1.494Z" style="fill:#fff;fill-rule:nonzero;stroke:#231f20;stroke-width:1px;"/><path d="M626.265,141.138l-2.553,0l0.461,-13.37c0.016,-0.439 0.376,-0.788 0.816,-0.788c0.439,0 0.799,0.349 0.814,0.788l0.462,13.37Z" style="fill:#fff;fill-rule:nonzero;stroke:#231f20;stroke-width:1px;"/><path d="M626.11,131.778l-2.244,-0c-0.427,-0 -0.774,-0.347 -0.774,-0.773l0,-0.001c0,-0.427 0.347,-0.773 0.774,-0.773l2.244,-0c0.427,-0 0.773,0.346 0.773,0.773l0,0.001c0,0.426 -0.346,0.773 -0.773,0.773Z" style="fill:#fff;fill-rule:nonzero;stroke:#231f20;stroke-width:1px;"/><path d="M641.968,119.167l-0,-28.07" style="fill:none;fill-rule:nonzero;stroke:#231f20;stroke-width:1px;"/><path d="M518.574,417.356l0,-22.97c0,-1.939 -1.571,-3.511 -3.511,-3.511l-9.474,0c-1.94,0 -3.511,1.572 -3.511,3.511l0,30.952l16.496,-7.982Z" style="fill:#fff;fill-rule:nonzero;stroke:#231f20;stroke-width:1px;"/><path d="M518.574,412.376l-16.496,-0" style="fill:none;fill-rule:nonzero;stroke:#231f20;stroke-width:1px;"/><path d="M518.574,398.583l-16.496,-0" style="fill:none;fill-rule:nonzero;stroke:#231f20;stroke-width:1px;"/><rect x="506.066" y="374.919" width="8.52" height="15.963" style="fill:#fff;stroke:#231f20;stroke-width:1px;"/><path d="M512.558,374.919l-4.463,-0l0.807,-23.368c0.026,-0.769 0.657,-1.377 1.425,-1.377c0.768,-0 1.398,0.608 1.424,1.377l0.807,23.368Z" style="fill:#fff;fill-rule:nonzero;stroke:#231f20;stroke-width:1px;"/><path d="M512.287,358.557l-3.922,0c-0.746,0 -1.351,-0.605 -1.351,-1.353c0,-0.746 0.605,-1.351 1.351,-1.351l3.922,0c0.747,0 1.352,0.605 1.352,1.351c0,0.748 -0.605,1.353 -1.352,1.353Z" style="fill:#fff;fill-rule:nonzero;stroke:#231f20;stroke-width:1px;"/><path d="M579.713,397.329l-33.535,-16.227l-33.535,16.227l-0,105.473l67.07,-0l-0,-105.473Z" style="fill:#fff;fill-rule:nonzero;stroke:#231f20;stroke-width:1px;"/><path d="M546.178,398.321c-0,0 -20.283,8.293 -20.283,25.781l-0,49.762l40.566,0l-0,-49.762c-0,-17.488 -20.283,-25.781 -20.283,-25.781Z" style="fill:#fff;fill-rule:nonzero;stroke:#231f20;stroke-width:1px;"/><path d="M531.87,436.878c0,-0 -2.189,0.896 -2.189,2.783l0,30.598l4.377,-0l0,-30.598c0,-1.887 -2.188,-2.783 -2.188,-2.783Z" style="fill:#fff;fill-rule:nonzero;stroke:#231f20;stroke-width:1px;"/><path d="M539.023,436.878c0,-0 -2.188,0.896 -2.188,2.783l0,30.598l4.377,-0l0,-30.598c0,-1.887 -2.189,-2.783 -2.189,-2.783Z" style="fill:#fff;fill-rule:nonzero;stroke:#231f20;stroke-width:1px;"/><path d="M546.178,433.618c-0,-0 -2.189,0.895 -2.189,2.782l-0,33.859l4.378,-0l-0,-33.859c-0,-1.887 -2.189,-2.782 -2.189,-2.782Z" style="fill:#fff;fill-rule:nonzero;stroke:#231f20;stroke-width:1px;"/><path d="M553.332,436.878c-0,-0 -2.189,0.896 -2.189,2.783l-0,30.598l4.377,-0l-0,-30.598c-0,-1.887 -2.188,-2.783 -2.188,-2.783Z" style="fill:#fff;fill-rule:nonzero;stroke:#231f20;stroke-width:1px;"/><path d="M560.485,436.878c0,-0 -2.188,0.896 -2.188,2.783l0,30.598l4.377,-0l0,-30.598c0,-1.887 -2.189,-2.783 -2.189,-2.783Z" style="fill:#fff;fill-rule:nonzero;stroke:#231f20;stroke-width:1px;"/><path d="M537.162,430.668c0,-0.999 -0.81,-1.81 -1.809,-1.81c-0.435,-0 -0.83,0.161 -1.142,0.417c-0.313,-0.256 -0.707,-0.417 -1.143,-0.417c-1,-0 -1.809,0.811 -1.809,1.81c0,0.769 0.482,1.422 1.159,1.684c0.082,0.922 0.848,1.648 1.793,1.648c0.944,-0 1.711,-0.726 1.793,-1.648c0.677,-0.262 1.158,-0.915 1.158,-1.684" style="fill:#fff;fill-rule:nonzero;"/><path d="M537.162,430.668c0,-0.999 -0.81,-1.81 -1.809,-1.81c-0.435,-0 -0.83,0.161 -1.142,0.417c-0.313,-0.256 -0.707,-0.417 -1.143,-0.417c-1,-0 -1.809,0.811 -1.809,1.81c0,0.769 0.482,1.422 1.159,1.684c0.082,0.922 0.848,1.648 1.793,1.648c0.944,-0 1.711,-0.726 1.793,-1.648c0.677,-0.262 1.158,-0.915 1.158,-1.684Z" style="fill:none;fill-rule:nonzero;stroke:#231f20;stroke-width:1px;"/><path d="M561.097,430.668c-0,-0.999 -0.81,-1.81 -1.81,-1.81c-0.435,-0 -0.83,0.161 -1.142,0.417c-0.313,-0.256 -0.706,-0.417 -1.143,-0.417c-0.999,-0 -1.808,0.811 -1.808,1.81c-0,0.769 0.481,1.422 1.158,1.684c0.083,0.922 0.849,1.648 1.793,1.648c0.944,-0 1.711,-0.726 1.793,-1.648c0.677,-0.262 1.159,-0.915 1.159,-1.684" style="fill:#fff;fill-rule:nonzero;"/><path d="M561.097,430.668c-0,-0.999 -0.81,-1.81 -1.81,-1.81c-0.435,-0 -0.83,0.161 -1.142,0.417c-0.313,-0.256 -0.706,-0.417 -1.143,-0.417c-0.999,-0 -1.808,0.811 -1.808,1.81c-0,0.769 0.481,1.422 1.158,1.684c0.083,0.922 0.849,1.648 1.793,1.648c0.944,-0 1.711,-0.726 1.793,-1.648c0.677,-0.262 1.159,-0.915 1.159,-1.684Z" style="fill:none;fill-rule:nonzero;stroke:#231f20;stroke-width:1px;"/><path d="M557.131,417.612c-0,6.049 -4.904,10.953 -10.953,10.953c-6.049,0 -10.953,-4.904 -10.953,-10.953c-0,-6.049 4.904,-10.953 10.953,-10.953c6.049,0 10.953,4.904 10.953,10.953" style="fill:#fff;fill-rule:nonzero;"/><path d="M557.131,417.612c-0,-6.045 -4.908,-10.953 -10.953,-10.953c-6.045,0 -10.953,4.908 -10.953,10.953c-0,6.045 4.908,10.953 10.953,10.953c6.045,0 10.953,-4.908 10.953,-10.953Z" style="fill:none;stroke:#231f20;stroke-width:1px;"/><path d="M537.952,415.397c0,0.999 0.81,1.81 1.81,1.81c0.435,0 0.83,-0.162 1.142,-0.417c0.313,0.255 0.707,0.417 1.143,0.417c0.999,0 1.809,-0.811 1.809,-1.81c0,-0.77 -0.482,-1.422 -1.159,-1.684c-0.082,-0.922 -0.849,-1.649 -1.793,-1.649c-0.944,0 -1.711,0.727 -1.793,1.649c-0.677,0.262 -1.159,0.914 -1.159,1.684" style="fill:#fff;fill-rule:nonzero;"/><path d="M537.952,415.397c0,0.999 0.81,1.81 1.81,1.81c0.435,0 0.83,-0.162 1.142,-0.417c0.313,0.255 0.707,0.417 1.143,0.417c0.999,0 1.809,-0.811 1.809,-1.81c0,-0.77 -0.482,-1.422 -1.159,-1.684c-0.082,-0.922 -0.849,-1.649 -1.793,-1.649c-0.944,0 -1.711,0.727 -1.793,1.649c-0.677,0.262 -1.159,0.914 -1.159,1.684Z" style="fill:none;fill-rule:nonzero;stroke:#231f20;stroke-width:1px;"/><path d="M548.5,415.397c0,0.999 0.81,1.81 1.809,1.81c0.435,0 0.83,-0.162 1.142,-0.417c0.313,0.255 0.707,0.417 1.143,0.417c0.999,0 1.809,-0.811 1.809,-1.81c0,-0.77 -0.482,-1.422 -1.159,-1.684c-0.082,-0.922 -0.848,-1.649 -1.793,-1.649c-0.944,0 -1.711,0.727 -1.793,1.649c-0.677,0.262 -1.158,0.914 -1.158,1.684" style="fill:#fff;fill-rule:nonzero;"/><path d="M548.5,415.397c0,0.999 0.81,1.81 1.809,1.81c0.435,0 0.83,-0.162 1.142,-0.417c0.313,0.255 0.707,0.417 1.143,0.417c0.999,0 1.809,-0.811 1.809,-1.81c0,-0.77 -0.482,-1.422 -1.159,-1.684c-0.082,-0.922 -0.848,-1.649 -1.793,-1.649c-0.944,0 -1.711,0.727 -1.793,1.649c-0.677,0.262 -1.158,0.914 -1.158,1.684Z" style="fill:none;fill-rule:nonzero;stroke:#231f20;stroke-width:1px;"/><path d="M543.226,423.352c-0,0.999 0.811,1.81 1.81,1.81c0.435,0 0.83,-0.162 1.142,-0.417c0.313,0.255 0.707,0.417 1.143,0.417c0.999,0 1.809,-0.811 1.809,-1.81c-0,-0.77 -0.482,-1.422 -1.159,-1.684c-0.082,-0.922 -0.849,-1.649 -1.793,-1.649c-0.944,0 -1.711,0.727 -1.793,1.649c-0.677,0.262 -1.159,0.914 -1.159,1.684" style="fill:#fff;fill-rule:nonzero;"/><path d="M543.226,423.352c-0,0.999 0.811,1.81 1.81,1.81c0.435,0 0.83,-0.162 1.142,-0.417c0.313,0.255 0.707,0.417 1.143,0.417c0.999,0 1.809,-0.811 1.809,-1.81c-0,-0.77 -0.482,-1.422 -1.159,-1.684c-0.082,-0.922 -0.849,-1.649 -1.793,-1.649c-0.944,0 -1.711,0.727 -1.793,1.649c-0.677,0.262 -1.159,0.914 -1.159,1.684Z" style="fill:none;fill-rule:nonzero;stroke:#231f20;stroke-width:1px;"/><path d="M579.56,481.797l-81.674,-0" style="fill:none;fill-rule:nonzero;stroke:#231f20;stroke-width:1px;"/><path d="M579.56,493.427l-81.674,-0" style="fill:none;fill-rule:nonzero;stroke:#231f20;stroke-width:1px;"/><path d="M579.56,498.294l-81.674,-0" style="fill:none;fill-rule:nonzero;stroke:#231f20;stroke-width:1px;"/><path d="M546.178,381.102l-33.535,16.227l-0,5.138l33.535,-16.226l33.535,16.226l-0,-5.138l-33.535,-16.227Z" style="fill:#fff;fill-rule:nonzero;stroke:#231f20;stroke-width:1px;"/><path d="M497.886,427.709l-0,75.093l14.757,-0l-0,-82.234l-14.757,7.141Z" style="fill:#fff;fill-rule:nonzero;stroke:#231f20;stroke-width:1px;"/><path d="M532.655,387.645l1.347,-0.651l-1.347,0.651Z" style="fill:#fff;fill-rule:nonzero;stroke:#231f20;stroke-width:1px;"/><path d="M540.074,370.555l0,13.5l6.104,-2.953l33.535,16.226l0,24.07l0,-50.843l-39.639,0Z" style="fill:#fff;fill-rule:nonzero;stroke:#231f20;stroke-width:1px;"/><path d="M532.641,336.21l3.261,21.364l-2.88,-0c1.938,-0 6.771,1.573 6.771,3.512l-0,8.8l0.282,0.67l39.638,-0l-0,-34.346l-47.072,-0Z" style="fill:#fff;fill-rule:nonzero;stroke:#231f20;stroke-width:1px;"/><path d="M539.793,384.055l0,-22.97c0,-1.939 -1.572,-3.511 -3.511,-3.511l-9.474,0c-1.94,0 -3.512,1.572 -3.512,3.511l0,30.952l16.497,-7.982Z" style="fill:#fff;fill-rule:nonzero;stroke:#231f20;stroke-width:1px;"/><path d="M539.793,379.074l-16.497,-0" style="fill:none;fill-rule:nonzero;stroke:#231f20;stroke-width:1px;"/><path d="M539.793,365.282l-16.497,0" style="fill:none;fill-rule:nonzero;stroke:#231f20;stroke-width:1px;"/><rect x="527.285" y="341.618" width="8.519" height="15.963" style="fill:#fff;stroke:#231f20;stroke-width:1px;"/><path d="M533.775,341.618l-4.462,-0l0.807,-23.369c0.026,-0.768 0.656,-1.376 1.425,-1.376c0.767,-0 1.398,0.608 1.424,1.376l0.806,23.369Z" style="fill:#fff;fill-rule:nonzero;stroke:#231f20;stroke-width:1px;"/><path d="M533.506,325.256l-3.922,-0c-0.747,-0 -1.352,-0.604 -1.352,-1.352c-0,-0.747 0.605,-1.351 1.352,-1.351l3.922,-0c0.746,-0 1.352,0.604 1.352,1.351c-0,0.748 -0.606,1.352 -1.352,1.352Z" style="fill:#fff;fill-rule:nonzero;stroke:#231f20;stroke-width:1px;"/><path d="M765.101,417.356l-0,-22.97c-0,-1.939 1.571,-3.511 3.511,-3.511l9.474,0c1.94,0 3.512,1.572 3.512,3.511l-0,30.952l-16.497,-7.982Z" style="fill:#fff;fill-rule:nonzero;stroke:#231f20;stroke-width:1px;"/><path d="M765.101,412.376l16.497,-0" style="fill:none;fill-rule:nonzero;stroke:#231f20;stroke-width:1px;"/><path d="M765.101,398.583l16.497,-0" style="fill:none;fill-rule:nonzero;stroke:#231f20;stroke-width:1px;"/><rect x="769.09" y="374.919" width="8.519" height="15.963" style="fill:#fff;stroke:#231f20;stroke-width:1px;"/><path d="M771.117,374.919l4.463,-0l-0.807,-23.368c-0.026,-0.769 -0.656,-1.377 -1.425,-1.377c-0.767,-0 -1.398,0.608 -1.424,1.377l-0.807,23.368Z" style="fill:#fff;fill-rule:nonzero;stroke:#231f20;stroke-width:1px;"/><path d="M771.388,358.557l3.922,0c0.747,0 1.352,-0.605 1.352,-1.353c-0,-0.746 -0.605,-1.351 -1.352,-1.351l-3.922,0c-0.746,0 -1.352,0.605 -1.352,1.351c-0,0.748 0.606,1.353 1.352,1.353Z" style="fill:#fff;fill-rule:nonzero;stroke:#231f20;stroke-width:1px;"/><path d="M703.963,397.329l33.534,-16.227l33.535,16.227l-0,105.473l-67.069,-0l-0,-105.473Z" style="fill:#fff;fill-rule:nonzero;stroke:#231f20;stroke-width:1px;"/><path d="M737.497,398.321c0,0 20.283,8.293 20.283,25.781l0,49.762l-40.566,0l0,-49.762c0,-17.488 20.283,-25.781 20.283,-25.781Z" style="fill:#fff;fill-rule:nonzero;stroke:#231f20;stroke-width:1px;"/><path d="M751.805,436.878c-0,-0 2.189,0.896 2.189,2.783l-0,30.598l-4.377,-0l-0,-30.598c-0,-1.887 2.188,-2.783 2.188,-2.783Z" style="fill:#fff;fill-rule:nonzero;stroke:#231f20;stroke-width:1px;"/><path d="M744.651,436.878c0,-0 2.188,0.896 2.188,2.783l0,30.598l-4.377,-0l0,-30.598c0,-1.887 2.189,-2.783 2.189,-2.783Z" style="fill:#fff;fill-rule:nonzero;stroke:#231f20;stroke-width:1px;"/><path d="M737.497,433.618c0,-0 2.189,0.895 2.189,2.782l0,33.859l-4.377,-0l0,-33.859c0,-1.887 2.188,-2.782 2.188,-2.782Z" style="fill:#fff;fill-rule:nonzero;stroke:#231f20;stroke-width:1px;"/><path d="M730.344,436.878c-0,-0 2.188,0.896 2.188,2.783l-0,30.598l-4.377,-0l-0,-30.598c-0,-1.887 2.189,-2.783 2.189,-2.783Z" style="fill:#fff;fill-rule:nonzero;stroke:#231f20;stroke-width:1px;"/><path d="M723.19,436.878c-0,-0 2.188,0.896 2.188,2.783l0,30.598l-4.377,-0l-0,-30.598c-0,-1.887 2.188,-2.783 2.188,-2.783Z" style="fill:#fff;fill-rule:nonzero;stroke:#231f20;stroke-width:1px;"/><path d="M746.513,430.668c-0,-0.999 0.81,-1.81 1.809,-1.81c0.436,-0 0.831,0.161 1.142,0.417c0.313,-0.256 0.707,-0.417 1.143,-0.417c1,-0 1.809,0.811 1.809,1.81c-0,0.769 -0.482,1.422 -1.159,1.684c-0.082,0.922 -0.848,1.648 -1.792,1.648c-0.945,-0 -1.711,-0.726 -1.793,-1.648c-0.678,-0.262 -1.159,-0.915 -1.159,-1.684" style="fill:#fff;fill-rule:nonzero;"/><path d="M746.513,430.668c-0,-0.999 0.81,-1.81 1.809,-1.81c0.436,-0 0.831,0.161 1.142,0.417c0.313,-0.256 0.707,-0.417 1.143,-0.417c1,-0 1.809,0.811 1.809,1.81c-0,0.769 -0.482,1.422 -1.159,1.684c-0.082,0.922 -0.848,1.648 -1.792,1.648c-0.945,-0 -1.711,-0.726 -1.793,-1.648c-0.678,-0.262 -1.159,-0.915 -1.159,-1.684Z" style="fill:none;fill-rule:nonzero;stroke:#231f20;stroke-width:1px;"/><path d="M722.578,430.668c0,-0.999 0.811,-1.81 1.81,-1.81c0.435,-0 0.83,0.161 1.142,0.417c0.313,-0.256 0.707,-0.417 1.143,-0.417c0.999,-0 1.809,0.811 1.809,1.81c0,0.769 -0.482,1.422 -1.159,1.684c-0.082,0.922 -0.849,1.648 -1.793,1.648c-0.944,-0 -1.711,-0.726 -1.793,-1.648c-0.677,-0.262 -1.159,-0.915 -1.159,-1.684" style="fill:#fff;fill-rule:nonzero;"/><path d="M722.578,430.668c0,-0.999 0.811,-1.81 1.81,-1.81c0.435,-0 0.83,0.161 1.142,0.417c0.313,-0.256 0.707,-0.417 1.143,-0.417c0.999,-0 1.809,0.811 1.809,1.81c0,0.769 -0.482,1.422 -1.159,1.684c-0.082,0.922 -0.849,1.648 -1.793,1.648c-0.944,-0 -1.711,-0.726 -1.793,-1.648c-0.677,-0.262 -1.159,-0.915 -1.159,-1.684Z" style="fill:none;fill-rule:nonzero;stroke:#231f20;stroke-width:1px;"/><path d="M726.545,417.612c-0,6.049 4.903,10.953 10.952,10.953c6.05,0 10.953,-4.904 10.953,-10.953c-0,-6.049 -4.903,-10.953 -10.953,-10.953c-6.049,0 -10.952,4.904 -10.952,10.953" style="fill:#fff;fill-rule:nonzero;"/><path d="M726.545,417.612c-0,6.045 4.908,10.953 10.952,10.953c6.045,0 10.953,-4.908 10.953,-10.953c-0,-6.045 -4.908,-10.953 -10.953,-10.953c-6.044,0 -10.952,4.908 -10.952,10.953Z" style="fill:none;stroke:#231f20;stroke-width:1px;"/><path d="M745.723,415.397c-0,0.999 -0.81,1.81 -1.809,1.81c-0.436,0 -0.831,-0.162 -1.142,-0.417c-0.313,0.255 -0.707,0.417 -1.143,0.417c-1,0 -1.809,-0.811 -1.809,-1.81c-0,-0.77 0.481,-1.422 1.159,-1.684c0.082,-0.922 0.848,-1.649 1.792,-1.649c0.944,0 1.711,0.727 1.794,1.649c0.676,0.262 1.158,0.914 1.158,1.684" style="fill:#fff;fill-rule:nonzero;"/><path d="M745.723,415.397c-0,0.999 -0.81,1.81 -1.809,1.81c-0.436,0 -0.831,-0.162 -1.142,-0.417c-0.313,0.255 -0.707,0.417 -1.143,0.417c-1,0 -1.809,-0.811 -1.809,-1.81c-0,-0.77 0.481,-1.422 1.159,-1.684c0.082,-0.922 0.848,-1.649 1.792,-1.649c0.944,0 1.711,0.727 1.794,1.649c0.676,0.262 1.158,0.914 1.158,1.684Z" style="fill:none;fill-rule:nonzero;stroke:#231f20;stroke-width:1px;"/><path d="M735.176,415.397c-0,0.999 -0.811,1.81 -1.81,1.81c-0.435,0 -0.83,-0.162 -1.142,-0.417c-0.313,0.255 -0.706,0.417 -1.143,0.417c-0.999,0 -1.809,-0.811 -1.809,-1.81c-0,-0.77 0.482,-1.422 1.159,-1.684c0.082,-0.922 0.849,-1.649 1.793,-1.649c0.944,0 1.711,0.727 1.793,1.649c0.677,0.262 1.159,0.914 1.159,1.684" style="fill:#fff;fill-rule:nonzero;"/><path d="M735.176,415.397c-0,0.999 -0.811,1.81 -1.81,1.81c-0.435,0 -0.83,-0.162 -1.142,-0.417c-0.313,0.255 -0.706,0.417 -1.143,0.417c-0.999,0 -1.809,-0.811 -1.809,-1.81c-0,-0.77 0.482,-1.422 1.159,-1.684c0.082,-0.922 0.849,-1.649 1.793,-1.649c0.944,0 1.711,0.727 1.793,1.649c0.677,0.262 1.159,0.914 1.159,1.684Z" style="fill:none;fill-rule:nonzero;stroke:#231f20;stroke-width:1px;"/><path d="M740.449,423.352c0,0.999 -0.811,1.81 -1.81,1.81c-0.435,0 -0.83,-0.162 -1.142,-0.417c-0.312,0.255 -0.706,0.417 -1.143,0.417c-0.999,0 -1.809,-0.811 -1.809,-1.81c0,-0.77 0.482,-1.422 1.159,-1.684c0.083,-0.922 0.849,-1.649 1.793,-1.649c0.944,0 1.711,0.727 1.793,1.649c0.677,0.262 1.159,0.914 1.159,1.684" style="fill:#fff;fill-rule:nonzero;"/><path d="M740.449,423.352c0,0.999 -0.811,1.81 -1.81,1.81c-0.435,0 -0.83,-0.162 -1.142,-0.417c-0.312,0.255 -0.706,0.417 -1.143,0.417c-0.999,0 -1.809,-0.811 -1.809,-1.81c0,-0.77 0.482,-1.422 1.159,-1.684c0.083,-0.922 0.849,-1.649 1.793,-1.649c0.944,0 1.711,0.727 1.793,1.649c0.677,0.262 1.159,0.914 1.159,1.684Z" style="fill:none;fill-rule:nonzero;stroke:#231f20;stroke-width:1px;"/><path d="M704.115,481.797l81.674,-0" style="fill:none;fill-rule:nonzero;stroke:#231f20;stroke-width:1px;"/><path d="M704.115,493.427l81.674,-0" style="fill:none;fill-rule:nonzero;stroke:#231f20;stroke-width:1px;"/><path d="M704.115,498.294l81.674,-0" style="fill:none;fill-rule:nonzero;stroke:#231f20;stroke-width:1px;"/><path d="M737.497,381.102l33.535,16.227l0,5.138l-33.535,-16.226l-33.534,16.226l0,-5.138l33.534,-16.227Z" style="fill:#fff;fill-rule:nonzero;stroke:#231f20;stroke-width:1px;"/><path d="M785.789,427.709l0,75.093l-14.757,-0l0,-82.234l14.757,7.141Z" style="fill:#fff;fill-rule:nonzero;stroke:#231f20;stroke-width:1px;"/><path d="M751.02,387.645l-1.347,-0.651l1.346,0.651Z" style="fill:#fff;fill-rule:nonzero;stroke:#231f20;stroke-width:1px;"/><path d="M743.601,370.555l-0,13.5l-6.104,-2.953l-33.534,16.226l-0,24.07l-0,-50.843l39.638,0Z" style="fill:#fff;fill-rule:nonzero;stroke:#231f20;stroke-width:1px;"/><path d="M751.034,336.21l-3.26,21.364l2.879,-0c-1.938,-0 -6.771,1.573 -6.771,3.512l0,8.8l-0.282,0.67l-39.637,-0l0,-34.346l47.071,-0Z" style="fill:#fff;fill-rule:nonzero;stroke:#231f20;stroke-width:1px;"/><path d="M743.882,384.055l-0,-22.97c-0,-1.939 1.572,-3.511 3.511,-3.511l9.474,0c1.94,0 3.512,1.572 3.512,3.511l-0,30.952l-16.497,-7.982Z" style="fill:#fff;fill-rule:nonzero;stroke:#231f20;stroke-width:1px;"/><path d="M743.882,379.074l16.497,-0" style="fill:none;fill-rule:nonzero;stroke:#231f20;stroke-width:1px;"/><path d="M743.882,365.282l16.497,0" style="fill:none;fill-rule:nonzero;stroke:#231f20;stroke-width:1px;"/><rect x="747.871" y="341.618" width="8.519" height="15.963" style="fill:#fff;stroke:#231f20;stroke-width:1px;"/><path d="M749.899,341.618l4.462,-0l-0.807,-23.369c-0.026,-0.768 -0.656,-1.376 -1.424,-1.376c-0.768,-0 -1.398,0.608 -1.424,1.376l-0.807,23.369Z" style="fill:#fff;fill-rule:nonzero;stroke:#231f20;stroke-width:1px;"/><path d="M750.17,325.256l3.921,-0c0.747,-0 1.352,-0.604 1.352,-1.352c-0,-0.747 -0.605,-1.351 -1.352,-1.351l-3.921,-0c-0.747,-0 -1.353,0.604 -1.353,1.351c-0,0.748 0.606,1.352 1.353,1.352Z" style="fill:#fff;fill-rule:nonzero;stroke:#231f20;stroke-width:1px;"/><path d="M684.515,330.106l-41.654,-55.288l-1.082,0l-41.656,55.288l-20.427,0l-0,172.695l124.285,0l-0,-172.695l-19.466,0Z" style="fill:#fff;fill-rule:nonzero;stroke:#231f20;stroke-width:1px;"/><path d="M641.297,281.024l1.082,-0l37.49,49.761l7.132,-0l-44.622,-59.226l-1.082,-0l-44.623,59.226l7.132,-0l37.491,-49.761Z" style="fill:#fff;fill-rule:nonzero;stroke:#231f20;stroke-width:1px;"/><path d="M704.625,493.806l-125.575,0" style="fill:none;fill-rule:nonzero;stroke:#231f20;stroke-width:1px;"/><path d="M704.625,498.294l-125.575,-0" style="fill:none;fill-rule:nonzero;stroke:#231f20;stroke-width:1px;"/><rect x="587.808" y="314.248" width="15.389" height="188.554" style="fill:#fff;stroke:#231f20;stroke-width:1px;"/><path d="M587.254,349.461l16.496,-0" style="fill:none;fill-rule:nonzero;stroke:#231f20;stroke-width:1px;"/><path d="M587.254,380.02l16.496,0" style="fill:none;fill-rule:nonzero;stroke:#231f20;stroke-width:1px;"/><path d="M587.254,420.587l16.496,-0" style="fill:none;fill-rule:nonzero;stroke:#231f20;stroke-width:1px;"/><path d="M587.254,459.802l16.496,-0" style="fill:none;fill-rule:nonzero;stroke:#231f20;stroke-width:1px;"/><path d="M597.395,328.095l-3.786,0l-0,-5.138c-0,-1.046 0.847,-1.893 1.892,-1.893c1.045,0 1.893,0.847 1.893,1.893l0,5.138Z" style="fill:#fff;fill-rule:nonzero;stroke:#231f20;stroke-width:1px;"/><path d="M606.82,315.385l-22.637,-0l10.049,-43l2.539,-0l10.049,43Z" style="fill:#fff;fill-rule:nonzero;stroke:#231f20;stroke-width:1px;"/><rect x="680.479" y="314.248" width="15.389" height="188.554" style="fill:#fff;stroke:#231f20;stroke-width:1px;"/><path d="M679.925,349.461l16.497,-0" style="fill:none;fill-rule:nonzero;stroke:#231f20;stroke-width:1px;"/><path d="M679.925,380.02l16.497,0" style="fill:none;fill-rule:nonzero;stroke:#231f20;stroke-width:1px;"/><path d="M679.925,420.587l16.497,-0" style="fill:none;fill-rule:nonzero;stroke:#231f20;stroke-width:1px;"/><path d="M679.925,459.802l16.497,-0" style="fill:none;fill-rule:nonzero;stroke:#231f20;stroke-width:1px;"/><path d="M690.066,328.095l-3.786,0l0,-5.138c0,-1.046 0.848,-1.893 1.892,-1.893c1.046,0 1.894,0.847 1.894,1.893l0,5.138Z" style="fill:#fff;fill-rule:nonzero;stroke:#231f20;stroke-width:1px;"/><path d="M699.492,315.385l-22.638,-0l10.049,-43l2.54,-0l10.049,43Z" style="fill:#fff;fill-rule:nonzero;stroke:#231f20;stroke-width:1px;"/><path d="M645.354,299.699c-0,1.942 -1.574,3.517 -3.516,3.517c-1.942,-0 -3.515,-1.575 -3.515,-3.517c-0,-1.941 1.572,-3.515 3.514,-3.515c1.942,-0 3.516,1.574 3.516,3.515" style="fill:#fff;fill-rule:nonzero;"/><path d="M645.354,299.7c-0,-1.941 -1.576,-3.516 -3.516,-3.516c-1.94,-0 -3.515,1.575 -3.515,3.516c-0,1.94 1.575,3.516 3.515,3.516c1.94,-0 3.515,-1.576 3.515,-3.516Z" style="fill:none;stroke:#231f20;stroke-width:1px;"/><path d="M641.838,310.913c-0,-0 -35.521,21.046 -35.521,51.672l-0,87.142l71.041,-0l-0,-87.142c-0,-30.626 -35.52,-51.672 -35.52,-51.672Z" style="fill:#fff;fill-rule:nonzero;stroke:#231f20;stroke-width:1px;"/><rect x="606.317" y="449.727" width="71.04" height="9.894" style="fill:#fff;stroke:#231f20;stroke-width:1px;"/><path d="M650.537,368.412c0,-0 -6.573,2.688 -6.573,8.354l0,72.939l13.145,-0l0,-72.939c0,-5.666 -6.572,-8.354 -6.572,-8.354Z" style="fill:#fff;fill-rule:nonzero;stroke:#231f20;stroke-width:1px;"/><path d="M650.537,450.065l0,-71.217" style="fill:none;fill-rule:nonzero;stroke:#231f20;stroke-width:1px;"/><path d="M656.97,375.627l-6.433,4.494l-6.433,-4.494" style="fill:#fff;fill-rule:nonzero;stroke:#231f20;stroke-width:1px;"/><path d="M633.139,368.412c-0,-0 -6.573,2.688 -6.573,8.354l-0,72.939l13.145,-0l-0,-72.939c-0,-5.666 -6.572,-8.354 -6.572,-8.354Z" style="fill:#fff;fill-rule:nonzero;stroke:#231f20;stroke-width:1px;"/><path d="M633.139,450.065l-0,-71.217" style="fill:none;fill-rule:nonzero;stroke:#231f20;stroke-width:1px;"/><path d="M639.571,375.627l-6.433,4.494l-6.433,-4.494" style="fill:#fff;fill-rule:nonzero;stroke:#231f20;stroke-width:1px;"/><path d="M615.74,368.412c0,-0 -6.573,2.688 -6.573,8.354l0,72.939l13.145,-0l0,-72.939c0,-5.666 -6.572,-8.354 -6.572,-8.354Z" style="fill:#fff;fill-rule:nonzero;stroke:#231f20;stroke-width:1px;"/><path d="M615.74,450.065l0,-71.217" style="fill:none;fill-rule:nonzero;stroke:#231f20;stroke-width:1px;"/><path d="M622.173,375.627l-6.433,4.494l-6.433,-4.494" style="fill:#fff;fill-rule:nonzero;stroke:#231f20;stroke-width:1px;"/><path d="M667.935,368.412c0,-0 -6.573,2.688 -6.573,8.354l0,72.939l13.145,-0l0,-72.939c0,-5.666 -6.572,-8.354 -6.572,-8.354Z" style="fill:#fff;fill-rule:nonzero;stroke:#231f20;stroke-width:1px;"/><path d="M667.935,450.065l0,-71.217" style="fill:none;fill-rule:nonzero;stroke:#231f20;stroke-width:1px;"/><path d="M674.368,375.627l-6.433,4.494l-6.433,-4.494" style="fill:#fff;fill-rule:nonzero;stroke:#231f20;stroke-width:1px;"/><path d="M664.535,344.593c0,12.536 -10.162,22.698 -22.697,22.698c-12.536,-0 -22.699,-10.162 -22.699,-22.698c0,-12.535 10.163,-22.697 22.699,-22.697c12.535,-0 22.697,10.162 22.697,22.697" style="fill:#fff;fill-rule:nonzero;"/><path d="M664.535,344.593c0,-12.527 -10.17,-22.697 -22.698,-22.697c-12.527,-0 -22.698,10.17 -22.698,22.697c0,12.527 10.171,22.698 22.698,22.698c12.528,-0 22.698,-10.171 22.698,-22.698Z" style="fill:none;stroke:#231f20;stroke-width:1px;"/><path d="M620.349,360.278c-0,2.956 -2.396,5.353 -5.353,5.353c-2.956,0 -5.352,-2.397 -5.352,-5.353c-0,-2.955 2.396,-5.352 5.352,-5.352c2.957,0 5.353,2.397 5.353,5.352" style="fill:#fff;fill-rule:nonzero;"/><path d="M620.349,360.279c-0,-2.955 -2.399,-5.353 -5.353,-5.353c-2.954,0 -5.352,2.398 -5.352,5.353c-0,2.954 2.398,5.352 5.352,5.352c2.954,0 5.353,-2.398 5.353,-5.352Z" style="fill:none;stroke:#231f20;stroke-width:1px;"/><path d="M674.031,360.278c0,2.956 -2.396,5.353 -5.353,5.353c-2.956,0 -5.352,-2.397 -5.352,-5.353c0,-2.955 2.396,-5.352 5.352,-5.352c2.957,0 5.353,2.397 5.353,5.352" style="fill:#fff;fill-rule:nonzero;"/><path d="M674.031,360.279c0,-2.955 -2.398,-5.353 -5.352,-5.353c-2.954,0 -5.353,2.398 -5.353,5.353c0,2.954 2.399,5.352 5.353,5.352c2.954,0 5.352,-2.398 5.352,-5.352Z" style="fill:none;stroke:#231f20;stroke-width:1px;"/><path d="M644.81,344.593c-0,1.642 -1.331,2.973 -2.972,2.973c-1.641,-0 -2.972,-1.331 -2.972,-2.973c-0,-1.642 1.331,-2.972 2.972,-2.972c1.641,-0 2.972,1.33 2.972,2.972" style="fill:#fff;fill-rule:nonzero;"/><path d="M644.81,344.593c-0,-1.641 -1.332,-2.972 -2.972,-2.972c-1.641,-0 -2.972,1.331 -2.972,2.972c-0,1.641 1.331,2.973 2.972,2.973c1.64,-0 2.972,-1.332 2.972,-2.973Z" style="fill:none;stroke:#231f20;stroke-width:1px;"/><path d="M644.81,361.631c-0,1.642 -1.331,2.973 -2.972,2.973c-1.641,-0 -2.972,-1.331 -2.972,-2.973c-0,-1.642 1.331,-2.973 2.972,-2.973c1.641,-0 2.972,1.331 2.972,2.973" style="fill:#fff;fill-rule:nonzero;"/><path d="M644.81,361.631c-0,-1.641 -1.332,-2.973 -2.972,-2.973c-1.641,-0 -2.972,1.332 -2.972,2.973c-0,1.64 1.331,2.973 2.972,2.973c1.64,-0 2.972,-1.333 2.972,-2.973Z" style="fill:none;stroke:#231f20;stroke-width:1px;"/><path d="M641.838,347.565l-0,11.093" style="fill:none;fill-rule:nonzero;stroke:#231f20;stroke-width:1px;"/><path d="M638.865,327.554c0,-1.641 1.331,-2.972 2.973,-2.972c1.64,0 2.971,1.331 2.971,2.972c0,1.643 -1.331,2.973 -2.971,2.973c-1.642,0 -2.973,-1.33 -2.973,-2.973" style="fill:#fff;fill-rule:nonzero;"/><path d="M638.865,327.555c0,1.64 1.332,2.972 2.972,2.972c1.64,0 2.972,-1.332 2.972,-2.972c0,-1.641 -1.332,-2.973 -2.972,-2.973c-1.64,0 -2.972,1.332 -2.972,2.973Z" style="fill:none;stroke:#231f20;stroke-width:1px;"/><path d="M641.838,341.621l-0,-11.094" style="fill:none;fill-rule:nonzero;stroke:#231f20;stroke-width:1px;"/><path d="M641.838,347.565c-1.642,0 -2.973,-1.331 -2.973,-2.973c-0,-1.641 1.331,-2.971 2.973,-2.971c1.641,0 2.972,1.33 2.972,2.971c-0,1.642 -1.331,2.973 -2.972,2.973" style="fill:#fff;fill-rule:nonzero;"/><path d="M641.838,347.565c-1.642,0 -2.973,-1.331 -2.973,-2.973c-0,-1.641 1.331,-2.971 2.973,-2.971c1.641,0 2.972,1.33 2.972,2.971c-0,1.642 -1.331,2.973 -2.972,2.973Z" style="fill:none;fill-rule:nonzero;stroke:#231f20;stroke-width:1px;"/><path d="M624.8,347.565c-1.642,0 -2.973,-1.331 -2.973,-2.973c-0,-1.641 1.331,-2.971 2.973,-2.971c1.642,0 2.973,1.33 2.973,2.971c-0,1.642 -1.331,2.973 -2.973,2.973" style="fill:#fff;fill-rule:nonzero;"/><path d="M624.8,347.565c-1.642,0 -2.973,-1.331 -2.973,-2.973c-0,-1.641 1.331,-2.971 2.973,-2.971c1.642,0 2.973,1.33 2.973,2.971c-0,1.642 -1.331,2.973 -2.973,2.973Z" style="fill:none;fill-rule:nonzero;stroke:#231f20;stroke-width:1px;"/><path d="M638.865,344.593l-11.093,-0" style="fill:none;fill-rule:nonzero;stroke:#231f20;stroke-width:1px;"/><path d="M658.875,341.621c1.642,-0 2.973,1.33 2.973,2.972c0,1.641 -1.331,2.972 -2.973,2.972c-1.642,-0 -2.972,-1.331 -2.972,-2.972c0,-1.642 1.33,-2.972 2.972,-2.972" style="fill:#fff;fill-rule:nonzero;"/><ellipse cx="658.876" cy="344.593" rx="2.972" ry="2.972" style="fill:none;stroke:#231f20;stroke-width:1px;"/><path d="M644.81,344.593l11.094,-0" style="fill:none;fill-rule:nonzero;stroke:#231f20;stroke-width:1px;"/><path d="M643.939,346.695c-1.16,1.16 -3.043,1.16 -4.203,0c-1.16,-1.161 -1.16,-3.043 -0,-4.204c1.16,-1.16 3.043,-1.16 4.203,0c1.161,1.161 1.161,3.043 0,4.204" style="fill:#fff;fill-rule:nonzero;"/><path d="M643.939,346.695c1.161,-1.16 1.161,-3.044 0,-4.204c-1.16,-1.16 -3.043,-1.16 -4.203,0c-1.161,1.16 -1.161,3.044 -0,4.204c1.16,1.16 3.043,1.16 4.203,0Z" style="fill:none;stroke:#231f20;stroke-width:1px;"/><path d="M631.892,358.742c-1.16,1.161 -3.042,1.161 -4.203,-0c-1.161,-1.16 -1.161,-3.043 -0,-4.203c1.161,-1.161 3.043,-1.161 4.203,-0c1.161,1.16 1.161,3.043 -0,4.203" style="fill:#fff;fill-rule:nonzero;"/><path d="M631.892,358.742c1.16,-1.16 1.16,-3.043 0,-4.204c-1.16,-1.16 -3.044,-1.16 -4.204,0c-1.16,1.161 -1.16,3.044 0,4.204c1.16,1.161 3.044,1.161 4.204,0Z" style="fill:none;stroke:#231f20;stroke-width:1px;"/><path d="M639.735,346.695l-7.844,7.844" style="fill:none;fill-rule:nonzero;stroke:#231f20;stroke-width:1px;"/><path d="M651.783,330.443c1.161,-1.16 3.043,-1.16 4.203,0c1.161,1.161 1.161,3.043 0,4.204c-1.16,1.16 -3.042,1.16 -4.203,0c-1.16,-1.161 -1.16,-3.043 0,-4.204" style="fill:#fff;fill-rule:nonzero;"/><path d="M651.783,330.443c-1.16,1.16 -1.16,3.044 -0,4.204c1.16,1.16 3.043,1.16 4.203,0c1.161,-1.16 1.161,-3.043 0.001,-4.203c-1.16,-1.161 -3.044,-1.161 -4.204,-0.001Z" style="fill:none;stroke:#231f20;stroke-width:1px;"/><path d="M643.939,342.491l7.845,-7.844" style="fill:none;fill-rule:nonzero;stroke:#231f20;stroke-width:1px;"/><path d="M639.735,346.695c-1.16,-1.161 -1.16,-3.043 0,-4.204c1.161,-1.16 3.043,-1.16 4.204,0c1.16,1.161 1.16,3.043 0,4.204c-1.161,1.16 -3.043,1.16 -4.204,0" style="fill:#fff;fill-rule:nonzero;"/><path d="M639.735,346.695c1.161,1.16 3.044,1.16 4.204,0c1.161,-1.16 1.161,-3.044 0,-4.204c-1.16,-1.16 -3.043,-1.16 -4.204,0c-1.16,1.16 -1.16,3.044 0,4.204Z" style="fill:none;stroke:#231f20;stroke-width:1px;"/><path d="M627.689,334.647c-1.161,-1.161 -1.161,-3.043 -0,-4.204c1.161,-1.16 3.043,-1.16 4.203,0c1.161,1.161 1.161,3.043 -0,4.204c-1.16,1.16 -3.042,1.16 -4.203,0" style="fill:#fff;fill-rule:nonzero;"/><path d="M627.689,334.647c1.16,1.16 3.043,1.16 4.203,-0c1.16,-1.16 1.16,-3.044 -0,-4.204c-1.161,-1.16 -3.044,-1.16 -4.204,0c-1.16,1.161 -1.16,3.044 0.001,4.204Z" style="fill:none;stroke:#231f20;stroke-width:1px;"/><path d="M639.735,342.491l-7.844,-7.844" style="fill:none;fill-rule:nonzero;stroke:#231f20;stroke-width:1px;"/><path d="M655.986,354.539c1.161,1.16 1.161,3.043 0,4.203c-1.16,1.161 -3.042,1.161 -4.203,-0c-1.16,-1.16 -1.16,-3.043 0,-4.203c1.161,-1.161 3.043,-1.161 4.203,-0" style="fill:#fff;fill-rule:nonzero;"/><path d="M655.987,354.539c-1.16,-1.16 -3.043,-1.16 -4.203,-0c-1.16,1.16 -1.16,3.043 -0,4.203c1.16,1.16 3.043,1.16 4.203,0c1.16,-1.16 1.16,-3.043 0,-4.203Z" style="fill:none;stroke:#231f20;stroke-width:1px;"/><path d="M643.939,346.695l7.845,7.844" style="fill:none;fill-rule:nonzero;stroke:#231f20;stroke-width:1px;"/><path d="M644.586,345.725c-0.626,1.518 -2.363,2.241 -3.881,1.615c-1.517,-0.625 -2.241,-2.362 -1.615,-3.88c0.625,-1.517 2.362,-2.241 3.88,-1.616c1.517,0.626 2.241,2.363 1.616,3.881" style="fill:#fff;fill-rule:nonzero;"/><path d="M644.586,345.725c0.625,-1.517 -0.099,-3.255 -1.616,-3.881c-1.516,-0.625 -3.255,0.099 -3.88,1.616c-0.625,1.517 0.098,3.256 1.615,3.881c1.517,0.625 3.256,-0.099 3.881,-1.616Z" style="fill:none;stroke:#231f20;stroke-width:1px;"/><path d="M638.096,361.478c-0.626,1.518 -2.363,2.241 -3.881,1.616c-1.517,-0.626 -2.241,-2.363 -1.615,-3.881c0.625,-1.517 2.362,-2.241 3.88,-1.615c1.517,0.625 2.241,2.362 1.616,3.88" style="fill:#fff;fill-rule:nonzero;"/><path d="M638.096,361.479c0.625,-1.517 -0.099,-3.256 -1.616,-3.881c-1.517,-0.625 -3.256,0.099 -3.881,1.615c-0.625,1.517 0.099,3.256 1.616,3.881c1.517,0.625 3.255,-0.099 3.881,-1.615Z" style="fill:none;stroke:#231f20;stroke-width:1px;"/><path d="M640.705,347.341l-4.226,10.258" style="fill:none;fill-rule:nonzero;stroke:#231f20;stroke-width:1px;"/><path d="M645.58,327.707c0.625,-1.518 2.362,-2.24 3.88,-1.615c1.517,0.625 2.241,2.363 1.616,3.881c-0.625,1.517 -2.363,2.24 -3.881,1.615c-1.517,-0.625 -2.241,-2.362 -1.615,-3.881" style="fill:#fff;fill-rule:nonzero;"/><path d="M645.579,327.707c-0.625,1.516 0.099,3.256 1.616,3.881c1.517,0.626 3.256,-0.098 3.881,-1.615c0.626,-1.517 -0.098,-3.256 -1.615,-3.881c-1.517,-0.626 -3.256,0.098 -3.882,1.615Z" style="fill:none;stroke:#231f20;stroke-width:1px;"/><path d="M642.97,341.845l4.226,-10.257" style="fill:none;fill-rule:nonzero;stroke:#231f20;stroke-width:1px;"/><path d="M640.705,347.341c-1.518,-0.625 -2.241,-2.362 -1.615,-3.88c0.625,-1.517 2.362,-2.241 3.88,-1.616c1.517,0.626 2.241,2.363 1.616,3.881c-0.626,1.517 -2.363,2.241 -3.881,1.615" style="fill:#fff;fill-rule:nonzero;"/><path d="M640.705,347.341c1.517,0.625 3.256,-0.099 3.881,-1.615c0.625,-1.517 -0.099,-3.256 -1.615,-3.881c-1.517,-0.625 -3.256,0.099 -3.881,1.615c-0.625,1.517 0.099,3.256 1.615,3.881Z" style="fill:none;stroke:#231f20;stroke-width:1px;"/><path d="M624.952,340.85c-1.518,-0.625 -2.241,-2.362 -1.616,-3.88c0.625,-1.517 2.363,-2.241 3.881,-1.616c1.517,0.625 2.241,2.363 1.615,3.881c-0.625,1.517 -2.362,2.241 -3.88,1.615" style="fill:#fff;fill-rule:nonzero;"/><path d="M624.952,340.851c1.517,0.625 3.256,-0.099 3.881,-1.616c0.625,-1.517 -0.099,-3.256 -1.616,-3.881c-1.517,-0.625 -3.256,0.099 -3.881,1.616c-0.625,1.517 0.099,3.256 1.616,3.881Z" style="fill:none;stroke:#231f20;stroke-width:1px;"/><path d="M639.09,343.461l-10.258,-4.226" style="fill:none;fill-rule:nonzero;stroke:#231f20;stroke-width:1px;"/><path d="M658.723,348.335c1.518,0.626 2.241,2.363 1.616,3.881c-0.625,1.517 -2.362,2.241 -3.88,1.616c-1.518,-0.626 -2.242,-2.363 -1.616,-3.881c0.625,-1.517 2.362,-2.241 3.88,-1.616" style="fill:#fff;fill-rule:nonzero;"/><path d="M658.722,348.335c-1.517,-0.625 -3.255,0.099 -3.88,1.616c-0.625,1.517 0.099,3.256 1.616,3.881c1.517,0.624 3.256,-0.1 3.881,-1.617c0.625,-1.517 -0.1,-3.256 -1.617,-3.88Z" style="fill:none;stroke:#231f20;stroke-width:1px;"/><path d="M644.586,345.725l10.257,4.226" style="fill:none;fill-rule:nonzero;stroke:#231f20;stroke-width:1px;"/><path d="M642.981,347.337c-1.516,0.631 -3.256,-0.086 -3.887,-1.602c-0.631,-1.514 0.086,-3.254 1.602,-3.885c1.514,-0.632 3.255,0.085 3.886,1.6c0.631,1.516 -0.085,3.256 -1.601,3.887" style="fill:#fff;fill-rule:nonzero;"/><path d="M642.98,347.337c1.515,-0.631 2.232,-2.372 1.602,-3.887c-0.631,-1.515 -2.373,-2.232 -3.887,-1.602c-1.515,0.631 -2.232,2.373 -1.602,3.887c0.631,1.515 2.373,2.233 3.887,1.602Z" style="fill:none;stroke:#231f20;stroke-width:1px;"/><path d="M627.252,353.886c-1.516,0.631 -3.256,-0.086 -3.887,-1.602c-0.631,-1.514 0.086,-3.254 1.602,-3.885c1.514,-0.631 3.255,0.086 3.886,1.6c0.631,1.516 -0.085,3.256 -1.601,3.887" style="fill:#fff;fill-rule:nonzero;"/><path d="M627.252,353.887c1.514,-0.631 2.232,-2.372 1.601,-3.887c-0.63,-1.514 -2.372,-2.232 -3.886,-1.601c-1.515,0.631 -2.233,2.372 -1.602,3.887c0.631,1.514 2.372,2.232 3.887,1.601Z" style="fill:none;stroke:#231f20;stroke-width:1px;"/><path d="M639.094,345.735l-10.241,4.265" style="fill:none;fill-rule:nonzero;stroke:#231f20;stroke-width:1px;"/><path d="M656.424,335.3c1.515,-0.632 3.255,0.085 3.886,1.601c0.632,1.515 -0.085,3.255 -1.601,3.886c-1.515,0.631 -3.256,-0.086 -3.887,-1.601c-0.63,-1.515 0.086,-3.255 1.602,-3.886" style="fill:#fff;fill-rule:nonzero;"/><path d="M656.423,335.299c-1.514,0.63 -2.232,2.372 -1.601,3.887c0.631,1.514 2.372,2.232 3.887,1.601c1.515,-0.631 2.232,-2.373 1.602,-3.887c-0.631,-1.515 -2.373,-2.232 -3.888,-1.601Z" style="fill:none;stroke:#231f20;stroke-width:1px;"/><path d="M644.581,343.45l10.241,-4.265" style="fill:none;fill-rule:nonzero;stroke:#231f20;stroke-width:1px;"/><path d="M639.094,345.735c-0.631,-1.515 0.086,-3.255 1.602,-3.886c1.514,-0.632 3.254,0.085 3.885,1.601c0.632,1.515 -0.085,3.256 -1.6,3.887c-1.516,0.63 -3.256,-0.086 -3.887,-1.602" style="fill:#fff;fill-rule:nonzero;"/><path d="M639.094,345.735c0.63,1.515 2.372,2.233 3.887,1.602c1.514,-0.631 2.232,-2.372 1.601,-3.887c-0.631,-1.515 -2.373,-2.233 -3.887,-1.602c-1.515,0.631 -2.232,2.373 -1.601,3.887Z" style="fill:none;stroke:#231f20;stroke-width:1px;"/><path d="M632.544,330.008c-0.631,-1.516 0.086,-3.256 1.601,-3.887c1.515,-0.631 3.255,0.086 3.886,1.602c0.631,1.514 -0.086,3.255 -1.6,3.886c-1.516,0.63 -3.256,-0.086 -3.887,-1.601" style="fill:#fff;fill-rule:nonzero;"/><path d="M632.544,330.007c0.63,1.515 2.372,2.232 3.886,1.602c1.515,-0.631 2.232,-2.372 1.601,-3.887c-0.63,-1.515 -2.372,-2.232 -3.886,-1.602c-1.515,0.631 -2.232,2.373 -1.601,3.887Z" style="fill:none;stroke:#231f20;stroke-width:1px;"/><path d="M640.695,341.849l-4.265,-10.241" style="fill:none;fill-rule:nonzero;stroke:#231f20;stroke-width:1px;"/><path d="M651.131,359.178c0.631,1.516 -0.086,3.256 -1.601,3.887c-1.515,0.631 -3.255,-0.086 -3.886,-1.602c-0.631,-1.514 0.086,-3.255 1.601,-3.886c1.515,-0.631 3.255,0.086 3.886,1.601" style="fill:#fff;fill-rule:nonzero;"/><path d="M651.131,359.179c-0.631,-1.515 -2.372,-2.232 -3.886,-1.602c-1.515,0.631 -2.232,2.373 -1.601,3.887c0.63,1.514 2.372,2.232 3.886,1.601c1.514,-0.63 2.232,-2.372 1.601,-3.886Z" style="fill:none;stroke:#231f20;stroke-width:1px;"/><path d="M642.981,347.337l4.264,10.241" style="fill:none;fill-rule:nonzero;stroke:#231f20;stroke-width:1px;"/><rect x="63.617" y="298.54" width="111.081" height="205.644" style="fill:#fff;stroke:#231f20;stroke-width:1px;"/><path d="M174.698,298.54l-111.081,-0l54.747,-17.323l56.334,17.323Z" style="fill:#fff;fill-rule:nonzero;stroke:#231f20;stroke-width:1px;stroke-linecap:round;stroke-linejoin:round;"/><rect x="174.698" y="310.602" width="297.826" height="193.581" style="fill:#fff;stroke:#231f20;stroke-width:1px;"/><rect x="174.698" y="362.557" width="297.826" height="3.404" style="fill:#fff;stroke:#231f20;stroke-width:1px;"/><rect x="174.698" y="430.244" width="297.826" height="3.404" style="fill:#fff;stroke:#231f20;stroke-width:1px;"/><rect x="63.617" y="362.557" width="111.081" height="3.404" style="fill:#fff;stroke:#231f20;stroke-width:1px;"/><rect x="63.617" y="430.244" width="111.081" height="3.404" style="fill:#fff;stroke:#231f20;stroke-width:1px;"/><rect x="63.617" y="475.7" width="111.081" height="3.404" style="fill:#fff;stroke:#231f20;stroke-width:1px;"/><rect x="174.698" y="280.104" width="297.826" height="30.498" style="fill:#fff;stroke:#231f20;stroke-width:1px;"/><rect x="286.751" y="441.308" width="33.512" height="62.71" style="fill:#fff;stroke:#231f20;stroke-width:1px;"/><rect x="285.178" y="441.309" width="36.657" height="4.697" style="fill:#fff;stroke:#231f20;stroke-width:1px;"/><rect x="286.751" y="499.049" width="33.512" height="4.969" style="fill:#fff;stroke:#231f20;stroke-width:1px;"/><rect x="292.88" y="462.138" width="21.253" height="41.88" style="fill:#fff;stroke:#231f20;stroke-width:1px;"/><path d="M303.641,456.737l-0,-6.942" style="fill:none;fill-rule:nonzero;stroke:#231f20;stroke-width:1px;"/><path d="M313.918,459.723c-0.195,-5.515 -4.715,-9.929 -10.277,-9.929c-5.562,0 -10.082,4.414 -10.278,9.929l20.555,0Z" style="fill:#fff;fill-rule:nonzero;stroke:#231f20;stroke-width:1px;"/><path d="M306.776,459.723c-0.088,-1.662 -1.451,-2.986 -3.136,-2.986c-1.683,0 -3.047,1.324 -3.135,2.986l6.271,0Z" style="fill:#fff;fill-rule:nonzero;stroke:#231f20;stroke-width:1px;"/><path d="M300.932,457.954l-5.475,-3.982" style="fill:none;fill-rule:nonzero;stroke:#231f20;stroke-width:1px;"/><path d="M306.351,457.954l5.475,-3.982" style="fill:none;fill-rule:nonzero;stroke:#231f20;stroke-width:1px;"/><rect x="174.935" y="441.308" width="33.512" height="62.71" style="fill:#fff;stroke:#231f20;stroke-width:1px;"/><rect x="173.363" y="441.309" width="36.657" height="4.697" style="fill:#fff;stroke:#231f20;stroke-width:1px;"/><rect x="174.935" y="499.049" width="33.512" height="4.969" style="fill:#fff;stroke:#231f20;stroke-width:1px;"/><rect x="181.064" y="462.138" width="21.253" height="41.88" style="fill:#fff;stroke:#231f20;stroke-width:1px;"/><path d="M191.825,456.737l0,-6.942" style="fill:none;fill-rule:nonzero;stroke:#231f20;stroke-width:1px;"/><path d="M202.103,459.723c-0.196,-5.515 -4.716,-9.929 -10.277,-9.929c-5.563,0 -10.083,4.414 -10.279,9.929l20.556,0Z" style="fill:#fff;fill-rule:nonzero;stroke:#231f20;stroke-width:1px;"/><path d="M194.961,459.723c-0.088,-1.662 -1.451,-2.986 -3.135,-2.986c-1.684,0 -3.048,1.324 -3.136,2.986l6.271,0Z" style="fill:#fff;fill-rule:nonzero;stroke:#231f20;stroke-width:1px;"/><path d="M189.116,457.954l-5.475,-3.982" style="fill:none;fill-rule:nonzero;stroke:#231f20;stroke-width:1px;"/><path d="M194.535,457.954l5.475,-3.982" style="fill:none;fill-rule:nonzero;stroke:#231f20;stroke-width:1px;"/><rect x="387.055" y="443.351" width="21.49" height="40.774" style="fill:#fff;stroke:#231f20;stroke-width:1px;"/><path d="M393.965,443.252l-0,40.973" style="fill:none;fill-rule:nonzero;stroke:#231f20;stroke-width:1px;"/><path d="M401.635,443.252l-0,40.973" style="fill:none;fill-rule:nonzero;stroke:#231f20;stroke-width:1px;"/><path d="M408.769,453.153l-21.937,0" style="fill:none;fill-rule:nonzero;stroke:#231f20;stroke-width:1px;"/><path d="M408.769,463.738l-21.937,0" style="fill:none;fill-rule:nonzero;stroke:#231f20;stroke-width:1px;"/><path d="M408.769,474.322l-21.937,0" style="fill:none;fill-rule:nonzero;stroke:#231f20;stroke-width:1px;"/><rect x="368.788" y="443.351" width="12.76" height="40.774" style="fill:#fff;stroke:#231f20;stroke-width:1px;"/><path d="M381.853,453.153l-12.955,0" style="fill:none;fill-rule:nonzero;stroke:#231f20;stroke-width:1px;"/><path d="M381.853,463.738l-12.955,0" style="fill:none;fill-rule:nonzero;stroke:#231f20;stroke-width:1px;"/><path d="M381.853,474.322l-12.955,0" style="fill:none;fill-rule:nonzero;stroke:#231f20;stroke-width:1px;"/><path d="M375.375,443.252l0,40.973" style="fill:none;fill-rule:nonzero;stroke:#231f20;stroke-width:1px;"/><rect x="413.747" y="443.351" width="12.76" height="40.774" style="fill:#fff;stroke:#231f20;stroke-width:1px;"/><path d="M426.811,453.153l-12.955,0" style="fill:none;fill-rule:nonzero;stroke:#231f20;stroke-width:1px;"/><path d="M426.811,463.738l-12.955,0" style="fill:none;fill-rule:nonzero;stroke:#231f20;stroke-width:1px;"/><path d="M426.811,474.322l-12.955,0" style="fill:none;fill-rule:nonzero;stroke:#231f20;stroke-width:1px;"/><path d="M420.334,443.252l0,40.973" style="fill:none;fill-rule:nonzero;stroke:#231f20;stroke-width:1px;"/><rect x="387.055" y="326.027" width="21.49" height="19.558" style="fill:#fff;stroke:#231f20;stroke-width:1px;"/><path d="M393.965,325.928l-0,18.988" style="fill:none;fill-rule:nonzero;stroke:#231f20;stroke-width:1px;"/><path d="M401.635,325.928l-0,18.988" style="fill:none;fill-rule:nonzero;stroke:#231f20;stroke-width:1px;"/><path d="M408.769,335.83l-21.937,-0" style="fill:none;fill-rule:nonzero;stroke:#231f20;stroke-width:1px;"/><rect x="368.788" y="326.027" width="12.76" height="19.558" style="fill:#fff;stroke:#231f20;stroke-width:1px;"/><path d="M381.853,335.83l-12.955,-0" style="fill:none;fill-rule:nonzero;stroke:#231f20;stroke-width:1px;"/><path d="M375.375,325.928l0,18.988" style="fill:none;fill-rule:nonzero;stroke:#231f20;stroke-width:1px;"/><rect x="294.245" y="326.027" width="12.76" height="19.558" style="fill:#fff;stroke:#231f20;stroke-width:1px;"/><path d="M307.31,335.83l-12.956,-0" style="fill:none;fill-rule:nonzero;stroke:#231f20;stroke-width:1px;"/><path d="M300.832,325.928l0,19.988" style="fill:none;fill-rule:nonzero;stroke:#231f20;stroke-width:1px;"/><rect x="413.747" y="326.027" width="12.76" height="19.558" style="fill:#fff;stroke:#231f20;stroke-width:1px;"/><path d="M426.811,335.83l-12.955,-0" style="fill:none;fill-rule:nonzero;stroke:#231f20;stroke-width:1px;"/><path d="M420.334,325.928l0,18.988" style="fill:none;fill-rule:nonzero;stroke:#231f20;stroke-width:1px;"/><rect x="227.43" y="326.027" width="21.491" height="19.558" style="fill:#fff;stroke:#231f20;stroke-width:1px;"/><path d="M234.341,325.928l-0,18.988" style="fill:none;fill-rule:nonzero;stroke:#231f20;stroke-width:1px;"/><path d="M242.01,325.928l-0,18.988" style="fill:none;fill-rule:nonzero;stroke:#231f20;stroke-width:1px;"/><path d="M249.144,335.83l-21.937,-0" style="fill:none;fill-rule:nonzero;stroke:#231f20;stroke-width:1px;"/><rect x="216.732" y="326.027" width="6.174" height="19.558" style="fill:#fff;stroke:#231f20;stroke-width:1px;"/><path d="M223.211,335.83l-6.568,-0" style="fill:none;fill-rule:nonzero;stroke:#231f20;stroke-width:1px;"/><rect x="253.23" y="326.027" width="6.173" height="19.558" style="fill:#fff;stroke:#231f20;stroke-width:1px;"/><path d="M259.708,335.83l-6.567,-0" style="fill:none;fill-rule:nonzero;stroke:#231f20;stroke-width:1px;"/><rect x="387.055" y="377.609" width="21.49" height="48.816" style="fill:#fff;stroke:#231f20;stroke-width:1px;"/><path d="M393.965,377.49l-0,49.054" style="fill:none;fill-rule:nonzero;stroke:#231f20;stroke-width:1px;"/><path d="M401.635,377.49l-0,49.054" style="fill:none;fill-rule:nonzero;stroke:#231f20;stroke-width:1px;"/><path d="M408.769,389.345l-21.937,-0" style="fill:none;fill-rule:nonzero;stroke:#231f20;stroke-width:1px;"/><path d="M408.769,402.016l-21.937,0" style="fill:none;fill-rule:nonzero;stroke:#231f20;stroke-width:1px;"/><path d="M408.769,414.688l-21.937,0" style="fill:none;fill-rule:nonzero;stroke:#231f20;stroke-width:1px;"/><rect x="368.788" y="377.609" width="12.76" height="48.816" style="fill:#fff;stroke:#231f20;stroke-width:1px;"/><path d="M381.853,389.345l-12.955,-0" style="fill:none;fill-rule:nonzero;stroke:#231f20;stroke-width:1px;"/><path d="M381.853,402.016l-12.955,0" style="fill:none;fill-rule:nonzero;stroke:#231f20;stroke-width:1px;"/><path d="M381.853,414.688l-12.955,0" style="fill:none;fill-rule:nonzero;stroke:#231f20;stroke-width:1px;"/><path d="M375.375,377.49l0,49.054" style="fill:none;fill-rule:nonzero;stroke:#231f20;stroke-width:1px;"/><rect x="413.747" y="377.609" width="12.76" height="48.816" style="fill:#fff;stroke:#231f20;stroke-width:1px;"/><path d="M426.811,389.345l-12.955,-0" style="fill:none;fill-rule:nonzero;stroke:#231f20;stroke-width:1px;"/><path d="M426.811,402.016l-12.955,0" style="fill:none;fill-rule:nonzero;stroke:#231f20;stroke-width:1px;"/><path d="M426.811,414.688l-12.955,0" style="fill:none;fill-rule:nonzero;stroke:#231f20;stroke-width:1px;"/><path d="M420.334,377.49l0,49.054" style="fill:none;fill-rule:nonzero;stroke:#231f20;stroke-width:1px;"/><rect x="294.379" y="377.608" width="14.547" height="37.08" style="fill:#fff;stroke:#231f20;stroke-width:1px;"/><path d="M301.29,377.49l-0,37.44" style="fill:none;fill-rule:nonzero;stroke:#231f20;stroke-width:1px;"/><path d="M309.148,389.345l-14.991,-0" style="fill:none;fill-rule:nonzero;stroke:#231f20;stroke-width:1px;"/><path d="M309.148,402.016l-14.991,0" style="fill:none;fill-rule:nonzero;stroke:#231f20;stroke-width:1px;"/><rect x="227.43" y="445.461" width="21.491" height="37.08" style="fill:#fff;stroke:#231f20;stroke-width:1px;"/><path d="M234.341,445.343l-0,37.44" style="fill:none;fill-rule:nonzero;stroke:#231f20;stroke-width:1px;"/><path d="M242.01,445.343l-0,37.44" style="fill:none;fill-rule:nonzero;stroke:#231f20;stroke-width:1px;"/><path d="M249.144,457.197l-21.937,0" style="fill:none;fill-rule:nonzero;stroke:#231f20;stroke-width:1px;"/><path d="M249.144,469.869l-21.937,-0" style="fill:none;fill-rule:nonzero;stroke:#231f20;stroke-width:1px;"/><rect x="216.09" y="445.46" width="6.264" height="37.101" style="fill:#fff;stroke:#231f20;stroke-width:1px;"/><path d="M222.657,457.197l-6.567,0" style="fill:none;fill-rule:nonzero;stroke:#231f20;stroke-width:1px;"/><path d="M222.657,469.869l-6.567,-0" style="fill:none;fill-rule:nonzero;stroke:#231f20;stroke-width:1px;"/><rect x="253.693" y="445.46" width="6.264" height="37.101" style="fill:#fff;stroke:#231f20;stroke-width:1px;"/><path d="M260.262,457.197l-6.568,0" style="fill:none;fill-rule:nonzero;stroke:#231f20;stroke-width:1px;"/><path d="M260.262,469.869l-6.568,-0" style="fill:none;fill-rule:nonzero;stroke:#231f20;stroke-width:1px;"/><rect x="227.43" y="377.608" width="21.491" height="37.08" style="fill:#fff;stroke:#231f20;stroke-width:1px;"/><path d="M234.341,377.49l-0,37.44" style="fill:none;fill-rule:nonzero;stroke:#231f20;stroke-width:1px;"/><path d="M242.01,377.49l-0,37.44" style="fill:none;fill-rule:nonzero;stroke:#231f20;stroke-width:1px;"/><path d="M249.144,389.345l-21.937,-0" style="fill:none;fill-rule:nonzero;stroke:#231f20;stroke-width:1px;"/><path d="M249.144,402.016l-21.937,0" style="fill:none;fill-rule:nonzero;stroke:#231f20;stroke-width:1px;"/><rect x="216.09" y="377.608" width="6.264" height="37.102" style="fill:#fff;stroke:#231f20;stroke-width:1px;"/><path d="M221.657,389.345l-5.567,-0" style="fill:none;fill-rule:nonzero;stroke:#231f20;stroke-width:1px;"/><path d="M221.657,402.016l-5.567,0" style="fill:none;fill-rule:nonzero;stroke:#231f20;stroke-width:1px;"/><rect x="253.693" y="377.608" width="6.264" height="37.102" style="fill:#fff;stroke:#231f20;stroke-width:1px;"/><path d="M260.262,389.345l-6.568,-0" style="fill:none;fill-rule:nonzero;stroke:#231f20;stroke-width:1px;"/><path d="M260.262,402.016l-6.568,0" style="fill:none;fill-rule:nonzero;stroke:#231f20;stroke-width:1px;"/><path d="M453.645,377.437c-4.307,0 -7.797,3.491 -7.797,7.798l-0,34.672l15.594,0l-0,-34.672c-0,-4.307 -3.49,-7.798 -7.797,-7.798" style="fill:#fff;fill-rule:nonzero;"/><path d="M453.645,377.437c-4.307,0 -7.797,3.491 -7.797,7.798l-0,34.672l15.594,0l-0,-34.672c-0,-4.307 -3.49,-7.798 -7.797,-7.798Z" style="fill:none;fill-rule:nonzero;stroke:#231f20;stroke-width:1px;"/><path d="M337.184,377.437c-4.306,0 -7.797,3.491 -7.797,7.798l-0,34.672l15.595,0l-0,-34.672c-0,-4.307 -3.491,-7.798 -7.798,-7.798" style="fill:#fff;fill-rule:nonzero;"/><path d="M337.184,377.437c-4.306,0 -7.797,3.491 -7.797,7.798l-0,34.672l15.595,0l-0,-34.672c-0,-4.307 -3.491,-7.798 -7.798,-7.798Z" style="fill:none;fill-rule:nonzero;stroke:#231f20;stroke-width:1px;"/><rect x="445.847" y="442.635" width="15.594" height="42.47" style="fill:#fff;stroke:#231f20;stroke-width:1px;"/><rect x="329.386" y="442.635" width="15.595" height="42.47" style="fill:#fff;stroke:#231f20;stroke-width:1px;"/><rect x="445.847" y="325.013" width="15.594" height="24.388" style="fill:#fff;stroke:#231f20;stroke-width:1px;"/><rect x="329.386" y="325.013" width="15.595" height="24.388" style="fill:#fff;stroke:#231f20;stroke-width:1px;"/><rect x="300.696" y="268.71" width="24.11" height="32.737" style="fill:#fff;stroke:#231f20;stroke-width:1px;"/><rect x="305.247" y="273.236" width="14.656" height="23.408" style="fill:#fff;stroke:#231f20;stroke-width:1px;"/><path d="M320.254,284.968l-14.882,0" style="fill:none;fill-rule:nonzero;stroke:#231f20;stroke-width:1px;"/><path d="M312.814,273.117l-0,23.924" style="fill:none;fill-rule:nonzero;stroke:#231f20;stroke-width:1px;"/><rect x="411.294" y="268.71" width="24.11" height="32.737" style="fill:#fff;stroke:#231f20;stroke-width:1px;"/><rect x="415.846" y="273.236" width="14.656" height="23.408" style="fill:#fff;stroke:#231f20;stroke-width:1px;"/><path d="M430.853,284.968l-14.882,0" style="fill:none;fill-rule:nonzero;stroke:#231f20;stroke-width:1px;"/><path d="M423.412,273.117l0,23.924" style="fill:none;fill-rule:nonzero;stroke:#231f20;stroke-width:1px;"/><rect x="107.308" y="436.332" width="21.491" height="37.08" style="fill:#fff;stroke:#231f20;stroke-width:1px;"/><path d="M114.219,436.213l-0,37.44" style="fill:none;fill-rule:nonzero;stroke:#231f20;stroke-width:1px;"/><path d="M121.888,436.213l-0,37.44" style="fill:none;fill-rule:nonzero;stroke:#231f20;stroke-width:1px;"/><path d="M129.022,448.067l-21.937,0" style="fill:none;fill-rule:nonzero;stroke:#231f20;stroke-width:1px;"/><path d="M129.022,460.74l-21.937,0" style="fill:none;fill-rule:nonzero;stroke:#231f20;stroke-width:1px;"/><rect x="95.967" y="436.331" width="6.263" height="37.101" style="fill:#fff;stroke:#231f20;stroke-width:1px;"/><path d="M102.535,448.067l-6.567,0" style="fill:none;fill-rule:nonzero;stroke:#231f20;stroke-width:1px;"/><path d="M102.535,460.739l-6.567,0" style="fill:none;fill-rule:nonzero;stroke:#231f20;stroke-width:1px;"/><rect x="133.571" y="436.331" width="6.263" height="37.101" style="fill:#fff;stroke:#231f20;stroke-width:1px;"/><path d="M140.139,448.067l-6.567,0" style="fill:none;fill-rule:nonzero;stroke:#231f20;stroke-width:1px;"/><path d="M140.139,460.739l-6.567,0" style="fill:none;fill-rule:nonzero;stroke:#231f20;stroke-width:1px;"/><rect x="107.308" y="372.308" width="21.491" height="37.08" style="fill:#fff;stroke:#231f20;stroke-width:1px;"/><path d="M114.219,372.19l-0,37.44" style="fill:none;fill-rule:nonzero;stroke:#231f20;stroke-width:1px;"/><path d="M121.888,372.19l-0,37.44" style="fill:none;fill-rule:nonzero;stroke:#231f20;stroke-width:1px;"/><path d="M129.022,384.045l-21.937,-0" style="fill:none;fill-rule:nonzero;stroke:#231f20;stroke-width:1px;"/><path d="M129.022,396.717l-21.937,-0" style="fill:none;fill-rule:nonzero;stroke:#231f20;stroke-width:1px;"/><rect x="95.967" y="372.308" width="6.263" height="37.102" style="fill:#fff;stroke:#231f20;stroke-width:1px;"/><path d="M102.535,384.045l-6.567,-0" style="fill:none;fill-rule:nonzero;stroke:#231f20;stroke-width:1px;"/><path d="M102.535,396.717l-6.567,-0" style="fill:none;fill-rule:nonzero;stroke:#231f20;stroke-width:1px;"/><rect x="133.571" y="372.308" width="6.263" height="37.102" style="fill:#fff;stroke:#231f20;stroke-width:1px;"/><path d="M140.139,384.045l-6.567,-0" style="fill:none;fill-rule:nonzero;stroke:#231f20;stroke-width:1px;"/><path d="M140.139,396.717l-6.567,-0" style="fill:none;fill-rule:nonzero;stroke:#231f20;stroke-width:1px;"/><rect x="87.038" y="409.555" width="61.714" height="13.106" style="fill:#fff;stroke:#231f20;stroke-width:1px;"/><path d="M90.431,422.661l-0,-13.106" style="fill:none;fill-rule:nonzero;stroke:#231f20;stroke-width:1px;"/><path d="M94.093,422.661l-0,-13.106" style="fill:none;fill-rule:nonzero;stroke:#231f20;stroke-width:1px;"/><path d="M97.755,422.661l-0,-13.106" style="fill:none;fill-rule:nonzero;stroke:#231f20;stroke-width:1px;"/><path d="M101.416,422.661l0,-13.106" style="fill:none;fill-rule:nonzero;stroke:#231f20;stroke-width:1px;"/><path d="M105.078,422.661l0,-13.106" style="fill:none;fill-rule:nonzero;stroke:#231f20;stroke-width:1px;"/><path d="M108.74,422.661l0,-13.106" style="fill:none;fill-rule:nonzero;stroke:#231f20;stroke-width:1px;"/><path d="M112.402,422.661l0,-13.106" style="fill:none;fill-rule:nonzero;stroke:#231f20;stroke-width:1px;"/><path d="M116.065,422.661l-0,-13.106" style="fill:none;fill-rule:nonzero;stroke:#231f20;stroke-width:1px;"/><path d="M119.727,422.661l-0,-13.106" style="fill:none;fill-rule:nonzero;stroke:#231f20;stroke-width:1px;"/><path d="M123.389,422.661l-0,-13.106" style="fill:none;fill-rule:nonzero;stroke:#231f20;stroke-width:1px;"/><path d="M127.05,422.661l-0,-13.106" style="fill:none;fill-rule:nonzero;stroke:#231f20;stroke-width:1px;"/><path d="M130.712,422.661l-0,-13.106" style="fill:none;fill-rule:nonzero;stroke:#231f20;stroke-width:1px;"/><path d="M134.374,422.661l0,-13.106" style="fill:none;fill-rule:nonzero;stroke:#231f20;stroke-width:1px;"/><path d="M138.036,422.661l0,-13.106" style="fill:none;fill-rule:nonzero;stroke:#231f20;stroke-width:1px;"/><path d="M141.698,422.661l0,-13.106" style="fill:none;fill-rule:nonzero;stroke:#231f20;stroke-width:1px;"/><path d="M145.359,422.661l0,-13.106" style="fill:none;fill-rule:nonzero;stroke:#231f20;stroke-width:1px;"/><rect x="110.605" y="312.165" width="21.491" height="19.558" style="fill:#fff;stroke:#231f20;stroke-width:1px;"/><path d="M117.516,312.066l-0,18.988" style="fill:none;fill-rule:nonzero;stroke:#231f20;stroke-width:1px;"/><path d="M125.185,312.066l-0,18.988" style="fill:none;fill-rule:nonzero;stroke:#231f20;stroke-width:1px;"/><path d="M132.318,321.969l-21.937,-0" style="fill:none;fill-rule:nonzero;stroke:#231f20;stroke-width:1px;"/><rect x="57.645" y="491.078" width="61.714" height="13.105" style="fill:#fff;stroke:#231f20;stroke-width:1px;"/><path d="M61.038,504.183l0,-13.105" style="fill:none;fill-rule:nonzero;stroke:#231f20;stroke-width:1px;"/><path d="M64.7,504.183l0,-13.105" style="fill:none;fill-rule:nonzero;stroke:#231f20;stroke-width:1px;"/><path d="M68.361,504.183l0,-13.105" style="fill:none;fill-rule:nonzero;stroke:#231f20;stroke-width:1px;"/><path d="M72.023,504.183l0,-13.105" style="fill:none;fill-rule:nonzero;stroke:#231f20;stroke-width:1px;"/><path d="M75.685,504.183l0,-13.105" style="fill:none;fill-rule:nonzero;stroke:#231f20;stroke-width:1px;"/><path d="M79.348,504.183l-0,-13.105" style="fill:none;fill-rule:nonzero;stroke:#231f20;stroke-width:1px;"/><path d="M83.01,504.183l-0,-13.105" style="fill:none;fill-rule:nonzero;stroke:#231f20;stroke-width:1px;"/><path d="M86.672,504.183l-0,-13.105" style="fill:none;fill-rule:nonzero;stroke:#231f20;stroke-width:1px;"/><path d="M90.333,504.183l0,-13.105" style="fill:none;fill-rule:nonzero;stroke:#231f20;stroke-width:1px;"/><path d="M93.995,504.183l0,-13.105" style="fill:none;fill-rule:nonzero;stroke:#231f20;stroke-width:1px;"/><path d="M97.657,504.183l0,-13.105" style="fill:none;fill-rule:nonzero;stroke:#231f20;stroke-width:1px;"/><path d="M101.319,504.183l0,-13.105" style="fill:none;fill-rule:nonzero;stroke:#231f20;stroke-width:1px;"/><path d="M104.981,504.183l0,-13.105" style="fill:none;fill-rule:nonzero;stroke:#231f20;stroke-width:1px;"/><path d="M108.643,504.183l-0,-13.105" style="fill:none;fill-rule:nonzero;stroke:#231f20;stroke-width:1px;"/><path d="M112.305,504.183l-0,-13.105" style="fill:none;fill-rule:nonzero;stroke:#231f20;stroke-width:1px;"/><path d="M115.967,504.183l-0,-13.105" style="fill:none;fill-rule:nonzero;stroke:#231f20;stroke-width:1px;"/><rect x="119.359" y="491.078" width="61.714" height="13.105" style="fill:#fff;stroke:#231f20;stroke-width:1px;"/><path d="M122.752,504.183l-0,-13.105" style="fill:none;fill-rule:nonzero;stroke:#231f20;stroke-width:1px;"/><path d="M126.414,504.183l0,-13.105" style="fill:none;fill-rule:nonzero;stroke:#231f20;stroke-width:1px;"/><path d="M130.076,504.183l0,-13.105" style="fill:none;fill-rule:nonzero;stroke:#231f20;stroke-width:1px;"/><path d="M133.738,504.183l0,-13.105" style="fill:none;fill-rule:nonzero;stroke:#231f20;stroke-width:1px;"/><path d="M137.399,504.183l0,-13.105" style="fill:none;fill-rule:nonzero;stroke:#231f20;stroke-width:1px;"/><path d="M141.062,504.183l-0.001,-13.105" style="fill:none;fill-rule:nonzero;stroke:#231f20;stroke-width:1px;"/><path d="M144.724,504.183l-0,-13.105" style="fill:none;fill-rule:nonzero;stroke:#231f20;stroke-width:1px;"/><path d="M148.386,504.183l-0,-13.105" style="fill:none;fill-rule:nonzero;stroke:#231f20;stroke-width:1px;"/><path d="M152.048,504.183l-0,-13.105" style="fill:none;fill-rule:nonzero;stroke:#231f20;stroke-width:1px;"/><path d="M155.709,504.183l-0,-13.105" style="fill:none;fill-rule:nonzero;stroke:#231f20;stroke-width:1px;"/><path d="M159.371,504.183l0,-13.105" style="fill:none;fill-rule:nonzero;stroke:#231f20;stroke-width:1px;"/><path d="M163.033,504.183l0,-13.105" style="fill:none;fill-rule:nonzero;stroke:#231f20;stroke-width:1px;"/><path d="M166.695,504.183l0,-13.105" style="fill:none;fill-rule:nonzero;stroke:#231f20;stroke-width:1px;"/><path d="M170.357,504.183l0,-13.105" style="fill:none;fill-rule:nonzero;stroke:#231f20;stroke-width:1px;"/><path d="M174.02,504.183l-0.001,-13.105" style="fill:none;fill-rule:nonzero;stroke:#231f20;stroke-width:1px;"/><path d="M177.681,504.183l-0,-13.105" style="fill:none;fill-rule:nonzero;stroke:#231f20;stroke-width:1px;"/><rect x="202.475" y="491.078" width="62.205" height="13.105" style="fill:#fff;stroke:#231f20;stroke-width:1px;"/><path d="M205.895,504.183l-0,-13.105" style="fill:none;fill-rule:nonzero;stroke:#231f20;stroke-width:1px;"/><path d="M209.585,504.183l0,-13.105" style="fill:none;fill-rule:nonzero;stroke:#231f20;stroke-width:1px;"/><path d="M213.276,504.183l0,-13.105" style="fill:none;fill-rule:nonzero;stroke:#231f20;stroke-width:1px;"/><path d="M216.967,504.183l-0,-13.105" style="fill:none;fill-rule:nonzero;stroke:#231f20;stroke-width:1px;"/><path d="M220.658,504.183l0,-13.105" style="fill:none;fill-rule:nonzero;stroke:#231f20;stroke-width:1px;"/><path d="M224.35,504.183l-0,-13.105" style="fill:none;fill-rule:nonzero;stroke:#231f20;stroke-width:1px;"/><path d="M228.04,504.183l0,-13.105" style="fill:none;fill-rule:nonzero;stroke:#231f20;stroke-width:1px;"/><path d="M231.731,504.183l0,-13.105" style="fill:none;fill-rule:nonzero;stroke:#231f20;stroke-width:1px;"/><path d="M235.423,504.183l-0,-13.105" style="fill:none;fill-rule:nonzero;stroke:#231f20;stroke-width:1px;"/><path d="M239.113,504.183l0,-13.105" style="fill:none;fill-rule:nonzero;stroke:#231f20;stroke-width:1px;"/><path d="M242.805,504.183l-0,-13.105" style="fill:none;fill-rule:nonzero;stroke:#231f20;stroke-width:1px;"/><path d="M246.496,504.183l0,-13.105" style="fill:none;fill-rule:nonzero;stroke:#231f20;stroke-width:1px;"/><path d="M250.187,504.183l-0,-13.105" style="fill:none;fill-rule:nonzero;stroke:#231f20;stroke-width:1px;"/><path d="M253.878,504.183l-0,-13.105" style="fill:none;fill-rule:nonzero;stroke:#231f20;stroke-width:1px;"/><path d="M257.568,504.183l0,-13.105" style="fill:none;fill-rule:nonzero;stroke:#231f20;stroke-width:1px;"/><path d="M261.26,504.183l-0,-13.105" style="fill:none;fill-rule:nonzero;stroke:#231f20;stroke-width:1px;"/><rect x="264.68" y="491.078" width="21.905" height="13.105" style="fill:#fff;stroke:#231f20;stroke-width:1px;"/><path d="M268.099,504.183l-0,-13.105" style="fill:none;fill-rule:nonzero;stroke:#231f20;stroke-width:1px;"/><path d="M271.79,504.183l0,-13.105" style="fill:none;fill-rule:nonzero;stroke:#231f20;stroke-width:1px;"/><path d="M275.481,504.183l0,-13.105" style="fill:none;fill-rule:nonzero;stroke:#231f20;stroke-width:1px;"/><path d="M279.172,504.183l-0,-13.105" style="fill:none;fill-rule:nonzero;stroke:#231f20;stroke-width:1px;"/><path d="M282.863,504.183l0,-13.105" style="fill:none;fill-rule:nonzero;stroke:#231f20;stroke-width:1px;"/><path d="M286.555,504.183l-0,-13.105" style="fill:none;fill-rule:nonzero;stroke:#231f20;stroke-width:1px;"/><rect x="320.428" y="491.078" width="61.715" height="13.105" style="fill:#fff;stroke:#231f20;stroke-width:1px;"/><path d="M323.82,504.183l0,-13.105" style="fill:none;fill-rule:nonzero;stroke:#231f20;stroke-width:1px;"/><path d="M327.482,504.183l0,-13.105" style="fill:none;fill-rule:nonzero;stroke:#231f20;stroke-width:1px;"/><path d="M331.145,504.183l-0,-13.105" style="fill:none;fill-rule:nonzero;stroke:#231f20;stroke-width:1px;"/><path d="M334.807,504.183l-0,-13.105" style="fill:none;fill-rule:nonzero;stroke:#231f20;stroke-width:1px;"/><path d="M338.469,504.183l-0,-13.105" style="fill:none;fill-rule:nonzero;stroke:#231f20;stroke-width:1px;"/><path d="M342.131,504.183l-0,-13.105" style="fill:none;fill-rule:nonzero;stroke:#231f20;stroke-width:1px;"/><path d="M345.792,504.183l0,-13.105" style="fill:none;fill-rule:nonzero;stroke:#231f20;stroke-width:1px;"/><path d="M349.454,504.183l0,-13.105" style="fill:none;fill-rule:nonzero;stroke:#231f20;stroke-width:1px;"/><path d="M353.116,504.183l0,-13.105" style="fill:none;fill-rule:nonzero;stroke:#231f20;stroke-width:1px;"/><path d="M356.778,504.183l0,-13.105" style="fill:none;fill-rule:nonzero;stroke:#231f20;stroke-width:1px;"/><path d="M360.44,504.183l0,-13.105" style="fill:none;fill-rule:nonzero;stroke:#231f20;stroke-width:1px;"/><path d="M364.102,504.183l-0,-13.105" style="fill:none;fill-rule:nonzero;stroke:#231f20;stroke-width:1px;"/><path d="M367.764,504.183l-0,-13.105" style="fill:none;fill-rule:nonzero;stroke:#231f20;stroke-width:1px;"/><path d="M371.426,504.183l-0,-13.105" style="fill:none;fill-rule:nonzero;stroke:#231f20;stroke-width:1px;"/><path d="M375.088,504.183l-0,-13.105" style="fill:none;fill-rule:nonzero;stroke:#231f20;stroke-width:1px;"/><path d="M378.75,504.183l0,-13.105" style="fill:none;fill-rule:nonzero;stroke:#231f20;stroke-width:1px;"/><rect x="382.143" y="491.078" width="21.732" height="13.105" style="fill:#fff;stroke:#231f20;stroke-width:1px;"/><path d="M385.535,504.183l0,-13.105" style="fill:none;fill-rule:nonzero;stroke:#231f20;stroke-width:1px;"/><path d="M389.197,504.183l0,-13.105" style="fill:none;fill-rule:nonzero;stroke:#231f20;stroke-width:1px;"/><path d="M392.858,504.183l0,-13.105" style="fill:none;fill-rule:nonzero;stroke:#231f20;stroke-width:1px;"/><path d="M396.52,504.183l0,-13.105" style="fill:none;fill-rule:nonzero;stroke:#231f20;stroke-width:1px;"/><path d="M400.183,504.183l-0,-13.105" style="fill:none;fill-rule:nonzero;stroke:#231f20;stroke-width:1px;"/><path d="M403.845,504.183l-0,-13.105" style="fill:none;fill-rule:nonzero;stroke:#231f20;stroke-width:1px;"/><rect x="403.709" y="491.078" width="61.714" height="13.105" style="fill:#fff;stroke:#231f20;stroke-width:1px;"/><path d="M407.102,504.183l-0,-13.105" style="fill:none;fill-rule:nonzero;stroke:#231f20;stroke-width:1px;"/><path d="M410.764,504.183l-0,-13.105" style="fill:none;fill-rule:nonzero;stroke:#231f20;stroke-width:1px;"/><path d="M414.426,504.183l-0,-13.105" style="fill:none;fill-rule:nonzero;stroke:#231f20;stroke-width:1px;"/><path d="M418.088,504.183l-0,-13.105" style="fill:none;fill-rule:nonzero;stroke:#231f20;stroke-width:1px;"/><path d="M421.749,504.183l0,-13.105" style="fill:none;fill-rule:nonzero;stroke:#231f20;stroke-width:1px;"/><path d="M425.411,504.183l0,-13.105" style="fill:none;fill-rule:nonzero;stroke:#231f20;stroke-width:1px;"/><path d="M429.073,504.183l0,-13.105" style="fill:none;fill-rule:nonzero;stroke:#231f20;stroke-width:1px;"/><path d="M432.735,504.183l0,-13.105" style="fill:none;fill-rule:nonzero;stroke:#231f20;stroke-width:1px;"/><path d="M436.397,504.183l0,-13.105" style="fill:none;fill-rule:nonzero;stroke:#231f20;stroke-width:1px;"/><path d="M440.059,504.183l-0,-13.105" style="fill:none;fill-rule:nonzero;stroke:#231f20;stroke-width:1px;"/><path d="M443.721,504.183l-0,-13.105" style="fill:none;fill-rule:nonzero;stroke:#231f20;stroke-width:1px;"/><path d="M447.383,504.183l-0,-13.105" style="fill:none;fill-rule:nonzero;stroke:#231f20;stroke-width:1px;"/><path d="M451.045,504.183l-0,-13.105" style="fill:none;fill-rule:nonzero;stroke:#231f20;stroke-width:1px;"/><path d="M454.707,504.183l0,-13.105" style="fill:none;fill-rule:nonzero;stroke:#231f20;stroke-width:1px;"/><path d="M458.369,504.183l0,-13.105" style="fill:none;fill-rule:nonzero;stroke:#231f20;stroke-width:1px;"/><path d="M462.031,504.183l0,-13.105" style="fill:none;fill-rule:nonzero;stroke:#231f20;stroke-width:1px;"/><rect x="465.423" y="491.078" width="11.115" height="13.105" style="fill:#fff;stroke:#231f20;stroke-width:1px;"/><path d="M468.815,504.183l0,-13.105" style="fill:none;fill-rule:nonzero;stroke:#231f20;stroke-width:1px;"/><path d="M472.477,504.183l0,-13.105" style="fill:none;fill-rule:nonzero;stroke:#231f20;stroke-width:1px;"/><path d="M476.14,504.183l-0,-13.105" style="fill:none;fill-rule:nonzero;stroke:#231f20;stroke-width:1px;"/></g></svg>