<svg viewBox="0 0 332 241" xmlns="http://www.w3.org/2000/svg" xml:space="preserve" style="fill-rule:evenodd;clip-rule:evenodd;stroke-miterlimit:10"><path d="M41.47 200.776c1.676 0 3.354.317 4.854.909 1.505-.601 3.169-.916 4.891-.916 1.474 0 2.918.236 4.245.69 1.293-.457 2.698-.696 4.127-.696.674 0 1.334.053 1.976.159a12.7679 12.7679 0 0 1 5.96-1.474h54.708c1.571 0 3.139.293 4.601.854 1.513-.542 3.142-.835 4.784-.853l68.211-.001c1.666.019 3.301.312 4.815.854 1.463-.561 3.031-.854 4.601-.854h54.709c2.086 0 4.123.507 5.959 1.474.643-.106 1.303-.159 1.977-.159 1.43 0 2.834.239 4.127.696 1.326-.454 2.771-.69 4.244-.69 1.721 0 3.385.314 4.889.914 1.5-.595 3.154-.907 4.857-.907h.075v-36.877c0-1.569.294-3.137.855-4.602-.541-1.511-.834-3.141-.854-4.782l-.001-68.212c.021-1.667.314-3.302.855-4.816-.561-1.463-.855-3.031-.855-4.601V40.009h-.075c-1.676 0-3.351-.317-4.852-.909-1.506.602-3.171.915-4.892.915-1.475 0-2.918-.236-4.244-.689-1.295.458-2.699.697-4.131.697-.673 0-1.332-.054-1.975-.161a12.7528 12.7528 0 0 1-5.959 1.475h-54.709c-1.57 0-3.138-.293-4.599-.854-1.513.542-3.143.835-4.783.854h-68.212c-1.666-.019-3.303-.312-4.817-.854-1.462.561-3.03.854-4.601.854H67.523c-2.086 0-4.122-.507-5.958-1.475-.644.107-1.304.161-1.976.161-1.431 0-2.836-.239-4.129-.697-1.327.453-2.771.689-4.245.689-1.72 0-3.385-.313-4.888-.913-1.5.596-3.154.907-4.857.907h-.076v36.877c0 1.571-.293 3.139-.854 4.601.542 1.513.836 3.143.854 4.785v68.21c-.018 1.666-.312 3.302-.854 4.815.561 1.463.854 3.031.854 4.602v36.877h.076Zm124.268 34.984c-7.044 0-13.371-2.126-17.355-5.834-1.883-1.653-4.155-2.593-6.337-2.593h-10.16c-2.844 0-5.6-.827-7.916-2.346-.961.111-2.357.176-4.556.176-.964 0-1.934-.012-2.809-.023-.692-.008-1.319-.015-1.828-.015-.319 0-.583.002-.777.011-.044.002-.089.003-.133.003-1.346 0-2.776.607-4.03 1.708-3.403 3.185-8.879 5.043-14.959 5.043-6.079 0-11.556-1.858-15.025-5.099-1.189-1.045-2.618-1.652-3.965-1.652h-8.173c-1.421 0-2.812-.228-4.155-.679-1.268.437-2.635.666-4.02.666-.465 0-.924-.027-1.377-.079-2.01 1.268-4.505 1.978-7.037 1.978-1.694 0-3.33-.311-4.808-.905-1.512.595-3.196.916-4.877.916-.989 0-1.948-.106-2.869-.315-2.409 1.523-5.245 2.349-8.131 2.349-8.346 0-15.137-6.79-15.137-15.137-.01-1.19.125-2.389.402-3.56-.002-.043-.002-.086-.002-.13 0-1.347-.606-2.778-1.709-4.028-6.765-7.24-6.765-22.685.057-29.986 1.046-1.189 1.652-2.62 1.652-3.966 0-.044 0-.089.004-.133.022-.459.007-1.502-.006-2.607-.043-3.54-.029-5.823.153-7.362-1.528-2.327-2.352-5.094-2.344-7.925v-10.151c0-2.182-.94-4.454-2.648-6.396-7.793-8.375-7.793-26.218.053-34.652 1.655-1.883 2.595-4.155 2.595-6.336V86.542c-.008-2.825.816-5.591 2.344-7.918-.18-1.536-.196-3.824-.153-7.362.013-1.103.026-2.146.004-2.611-.002-.043-.002-.086-.002-.129 0-1.346-.606-2.777-1.709-4.029-6.765-7.239-6.765-22.684.057-29.985 1.046-1.189 1.652-2.62 1.652-3.966v-.158c-.275-1.169-.41-2.363-.4-3.557-.035-3.929 1.484-7.674 4.28-10.494 2.909-2.936 6.937-4.62 11.045-4.62 2.862 0 5.586.807 7.962 2.347.914-.206 1.869-.31 2.85-.31 1.679 0 3.365.32 4.877.916 1.476-.596 3.114-.906 4.808-.906 2.532 0 5.027.71 7.037 1.978.453-.052.914-.079 1.379-.079 1.385 0 2.752.229 4.018.666 1.342-.45 2.734-.678 4.155-.678h8.173c1.347 0 2.776-.607 4.029-1.709 3.405-3.184 8.88-5.043 14.959-5.043 6.08 0 11.556 1.859 15.026 5.1 1.189 1.045 2.619 1.652 3.965 1.652.042 0 .085.001.128.003.199.008.465.011.787.011.51 0 1.139-.008 1.831-.016.87-.011 1.837-.022 2.798-.022 2.198 0 3.598.065 4.557.175 2.316-1.52 5.068-2.345 7.885-2.345h10.193c2.182 0 4.454-.94 6.395-2.648 3.926-3.654 10.253-5.78 17.297-5.78 7.044 0 13.371 2.126 17.355 5.833 1.883 1.655 4.155 2.595 6.336 2.595h10.16c2.845 0 5.602.825 7.918 2.345.958-.111 2.355-.176 4.547-.176.965 0 1.939.012 2.814.023.694.008 1.323.016 1.832.016.317 0 .582-.002.776-.011.043-.002.089-.003.133-.003 1.345 0 2.777-.607 4.027-1.709 3.406-3.184 8.883-5.043 14.961-5.043 6.08 0 11.557 1.859 15.025 5.1 1.19 1.045 2.619 1.652 3.965 1.652h8.174c1.422 0 2.814.227 4.154.678 1.268-.437 2.635-.666 4.019-.666.464 0 .925.027 1.379.079 2.011-1.268 4.505-1.978 7.036-1.978 1.695 0 3.331.31 4.81.906 1.51-.596 3.196-.916 4.875-.916.989 0 1.95.105 2.872.314 2.407-1.523 5.242-2.349 8.128-2.349 8.346 0 15.137 6.79 15.137 15.137.009 1.173-.125 2.365-.398 3.531v.159c0 1.346.605 2.777 1.707 4.029 6.766 7.239 6.766 22.684-.057 29.985-1.045 1.189-1.65 2.62-1.65 3.966 0 .044-.002.087-.004.13-.022.467-.01 1.514.004 2.623.043 3.531.027 5.814-.153 7.349 1.528 2.328 2.354 5.095 2.346 7.926v10.151c0 2.181.94 4.453 2.647 6.396 7.795 8.374 7.795 26.217-.053 34.651-1.654 1.883-2.594 4.155-2.594 6.337v10.159c.008 2.823-.818 5.589-2.346 7.917.182 1.538.198 3.822.153 7.362-.014 1.105-.027 2.148-.004 2.607.002.044.004.089.004.133 0 1.346.605 2.777 1.707 4.03 6.766 7.238 6.766 22.682-.057 29.984-1.045 1.188-1.65 2.619-1.65 3.966 0 .044-.002.089-.004.133.277 1.17.414 2.373.402 3.585.035 3.926-1.484 7.671-4.279 10.491-2.91 2.936-6.936 4.62-11.046 4.62-2.86 0-5.585-.807-7.96-2.347-.916.206-1.871.311-2.852.311-1.679 0-3.365-.321-4.875-.916-1.479.594-3.115.905-4.81.905-2.531 0-5.025-.71-7.037-1.978-.451.052-.912.079-1.377.079-1.385 0-2.752-.229-4.02-.666-1.341.451-2.732.679-4.154.679h-8.174c-1.346 0-2.775.607-4.029 1.708-3.403 3.185-8.879 5.043-14.959 5.043s-11.557-1.858-15.025-5.099c-1.188-1.045-2.62-1.652-3.965-1.652-.044 0-.088-.001-.131-.003-.198-.009-.467-.011-.791-.011-.51 0-1.138.007-1.828.015-.869.011-1.834.022-2.79.022-2.199 0-3.601-.065-4.562-.176-2.316 1.52-5.068 2.347-7.885 2.347h-10.193c-2.181 0-4.453.94-6.395 2.647-3.924 3.654-10.251 5.78-17.296 5.78Z" style="fill:none;fill-rule:nonzero;stroke:#231f20;stroke-width:1px"/><path d="M169.056 14.434c0-1.831-1.487-3.318-3.318-3.318s-3.318 1.487-3.318 3.318 1.487 3.318 3.318 3.318 3.318-1.487 3.318-3.318ZM158.483 17.079c0-1.026-.833-1.859-1.859-1.859-1.025 0-1.858.833-1.858 1.859 0 1.025.833 1.858 1.858 1.858 1.026 0 1.859-.833 1.859-1.858ZM176.71 17.079c0-1.026-.832-1.859-1.858-1.859-1.026 0-1.859.833-1.859 1.859 0 1.025.833 1.858 1.859 1.858s1.858-.833 1.858-1.858ZM162.42 226.351c0 1.831 1.487 3.317 3.318 3.317 1.832 0 3.318-1.486 3.318-3.317 0-1.831-1.486-3.318-3.318-3.318-1.831 0-3.318 1.487-3.318 3.318ZM172.994 223.706c0 1.025.832 1.858 1.858 1.858 1.026 0 1.859-.833 1.859-1.858 0-1.026-.833-1.858-1.859-1.858s-1.858.832-1.858 1.858ZM154.766 223.706c0 1.025.833 1.858 1.858 1.858 1.026 0 1.859-.833 1.859-1.858 0-1.026-.833-1.858-1.859-1.858-1.025 0-1.858.832-1.858 1.858Z" style="fill:none;stroke:#231f20;stroke-width:1px"/><path style="fill:#fff;stroke:#231f20;stroke-width:1px" d="M28.05 25.304h275.375v190.177H28.05z"/><path style="fill:#fff;stroke:#231f20;stroke-width:1px" d="M33.719 30.974h264.038v178.838H33.719z"/><path style="fill:#fff;stroke:#231f20;stroke-width:1px" d="M36.554 33.808h258.367v173.169H36.554z"/><ellipse cx="15.213" cy="120.392" rx="3.317" ry="3.318" style="fill:none;stroke:#231f20;stroke-width:1px"/><circle cx="17.858" cy="129.506" style="fill:none;stroke:#231f20;stroke-width:1px" r="1.858"/><circle cx="17.858" cy="111.278" style="fill:none;stroke:#231f20;stroke-width:1px" r="1.858"/><path d="M316.263 123.711c-1.832 0-3.318-1.486-3.318-3.318s1.486-3.318 3.318-3.318 3.318 1.486 3.318 3.318-1.486 3.318-3.318 3.318ZM313.619 113.137c-1.027 0-1.859-.832-1.859-1.858 0-1.027.832-1.859 1.859-1.859 1.025 0 1.858.832 1.858 1.859 0 1.026-.833 1.858-1.858 1.858ZM313.619 131.364c-1.027 0-1.859-.832-1.859-1.858 0-1.027.832-1.859 1.859-1.859 1.025 0 1.858.832 1.858 1.859 0 1.026-.833 1.858-1.858 1.858Z" style="fill:none;fill-rule:nonzero;stroke:#231f20;stroke-width:1px"/></svg>