<svg viewBox="0 0 93 93" xmlns="http://www.w3.org/2000/svg" xml:space="preserve" style="fill-rule:evenodd;clip-rule:evenodd;stroke-linejoin:round;stroke-miterlimit:2"><path style="fill:#231f20" d="M0 0h92.342v92.343H0z"/><clipPath id="a"><path d="M0 0h92.342v92.343H0z"/></clipPath><g clip-path="url(#a)"><path d="M0 .002v2.112L17.338.002H0ZM0 14.247l17.352 2.114.659-5.408L0 8.759v5.488ZM0 23.784v5.487l18.011-2.192-.659-5.409L0 23.784ZM0 41.406l17.352 2.112.659-5.406L0 35.918v5.488ZM0 50.943v5.488l18.011-2.193-.659-5.409L0 50.943ZM0 68.564l17.352 2.114.659-5.408L0 63.076v5.488ZM0 78.101v5.488l18.011-2.194-.659-5.408L0 78.101ZM0 92.344h17.324L0 90.234v2.11Z" style="fill:#fff;fill-rule:nonzero"/><path d="M45.467 9.571 21.972 6.71l.659-5.407 23.494 2.861-.658 5.407ZM21.974 17.743l23.494-2.862.659 5.408-23.495 2.862-.658-5.408ZM45.467 36.729l-23.495-2.861.659-5.407 23.494 2.861-.658 5.407ZM21.974 44.901l23.494-2.862.659 5.408-23.495 2.862-.658-5.408ZM45.467 63.887l-23.495-2.861.659-5.407 23.494 2.861-.658 5.407ZM21.974 72.06l23.494-2.861.659 5.406-23.495 2.861-.658-5.406ZM45.467 91.045l-23.495-2.861.659-5.406 23.494 2.861-.658 5.406Z" style="fill:#fff"/><path d="m50.407.002.34 2.78L73.57.002H50.407Z" style="fill:#fff;fill-rule:nonzero"/><path d="m73.583 16.361-23.495-2.862.658-5.407 23.496 2.862-.659 5.407ZM50.087 24.533l23.497-2.86.658 5.406-23.497 2.86-.658-5.406ZM73.584 43.518l-23.496-2.86.658-5.406 23.496 2.86-.658 5.406ZM50.087 51.691l23.496-2.861.659 5.407-23.497 2.861-.658-5.407ZM73.583 70.677l-23.495-2.861.658-5.407 23.496 2.861-.659 5.407ZM50.087 78.849l23.496-2.861.659 5.407-23.497 2.861-.658-5.407Z" style="fill:#fff"/><path d="M50.408 92.344h23.147l-22.808-2.778-.339 2.778ZM78.203 6.709l14.139 1.722V2.943L78.863 1.301l-.66 5.408ZM78.203 17.743l.659 5.408 13.48-1.642V16.02l-14.139 1.723ZM78.203 33.868l14.139 1.722v-5.488l-13.479-1.641-.66 5.407ZM78.203 44.901l.659 5.408 13.48-1.642v-5.488l-14.139 1.722ZM78.203 61.026l14.139 1.722V57.26l-13.479-1.641-.66 5.407ZM78.203 72.06l.659 5.406 13.48-1.641v-5.487L78.203 72.06ZM78.203 88.184l14.139 1.722v-5.487l-13.479-1.642-.66 5.407Z" style="fill:#fff;fill-rule:nonzero"/></g></svg>