<svg viewBox="0 0 98 100" xmlns="http://www.w3.org/2000/svg" xml:space="preserve" style="fill-rule:evenodd;clip-rule:evenodd;stroke-linejoin:round;stroke-miterlimit:2"><clipPath id="a"><path clip-rule="nonzero" d="M2.625 3.552h92.342v92.343H2.625z"/></clipPath><g clip-path="url(#a)"><path style="fill:#231f20" d="M2.625 3.551h92.342v92.343H2.625z"/><path d="M14.66 3.562c0 1.967-1.594 3.561-3.561 3.561-1.966 0-3.56-1.594-3.56-3.561C7.539 1.595 9.133 0 11.099 0c1.967 0 3.561 1.595 3.561 3.562M29.739 3.562c0 1.967-1.594 3.561-3.561 3.561-1.966 0-3.561-1.594-3.561-3.561C22.617 1.595 24.212 0 26.178 0c1.967 0 3.561 1.595 3.561 3.562M44.817 3.562c0 1.967-1.594 3.561-3.561 3.561-1.966 0-3.56-1.594-3.56-3.561C37.696 1.595 39.29 0 41.256 0c1.967 0 3.561 1.595 3.561 3.562M59.895 3.562c0 1.967-1.594 3.561-3.561 3.561-1.966 0-3.561-1.594-3.561-3.561C52.773 1.595 54.368 0 56.334 0c1.967 0 3.561 1.595 3.561 3.562M74.973 3.562c0 1.967-1.594 3.561-3.561 3.561-1.966 0-3.56-1.594-3.56-3.561 0-1.967 1.594-3.562 3.56-3.562 1.967 0 3.561 1.595 3.561 3.562M90.052 3.562c0 1.967-1.594 3.561-3.561 3.561-1.966 0-3.56-1.594-3.56-3.561 0-1.967 1.594-3.562 3.56-3.562 1.967 0 3.561 1.595 3.561 3.562M7.121 16.752c0 1.966-1.594 3.561-3.561 3.561-1.966 0-3.56-1.595-3.56-3.561 0-1.967 1.594-3.563 3.56-3.563 1.967 0 3.561 1.596 3.561 3.563M22.2 16.752c0 1.966-1.594 3.561-3.561 3.561-1.966 0-3.561-1.595-3.561-3.561 0-1.967 1.595-3.563 3.561-3.563 1.967 0 3.561 1.596 3.561 3.563M37.278 16.752c0 1.966-1.594 3.561-3.561 3.561-1.966 0-3.561-1.595-3.561-3.561 0-1.967 1.595-3.563 3.561-3.563 1.967 0 3.561 1.596 3.561 3.563M52.356 16.752c0 1.966-1.594 3.561-3.561 3.561-1.966 0-3.56-1.595-3.56-3.561 0-1.967 1.594-3.563 3.56-3.563 1.967 0 3.561 1.596 3.561 3.563M67.434 16.752c0 1.966-1.594 3.561-3.561 3.561-1.966 0-3.561-1.595-3.561-3.561 0-1.967 1.595-3.563 3.561-3.563 1.967 0 3.561 1.596 3.561 3.563M82.513 16.752c0 1.966-1.594 3.561-3.561 3.561-1.966 0-3.56-1.595-3.56-3.561 0-1.967 1.594-3.563 3.56-3.563 1.967 0 3.561 1.596 3.561 3.563M97.591 16.752c0 1.966-1.594 3.561-3.561 3.561-1.966 0-3.561-1.595-3.561-3.561 0-1.967 1.595-3.563 3.561-3.563 1.967 0 3.561 1.596 3.561 3.563M14.66 29.94c0 1.967-1.594 3.561-3.561 3.561-1.966 0-3.56-1.594-3.56-3.561 0-1.967 1.594-3.562 3.56-3.562 1.967 0 3.561 1.595 3.561 3.562M29.739 29.94c0 1.967-1.594 3.561-3.561 3.561-1.966 0-3.561-1.594-3.561-3.561 0-1.967 1.595-3.562 3.561-3.562 1.967 0 3.561 1.595 3.561 3.562M44.817 29.94c0 1.967-1.594 3.561-3.561 3.561-1.966 0-3.56-1.594-3.56-3.561 0-1.967 1.594-3.562 3.56-3.562 1.967 0 3.561 1.595 3.561 3.562M59.895 29.94c0 1.967-1.594 3.561-3.561 3.561-1.966 0-3.561-1.594-3.561-3.561 0-1.967 1.595-3.562 3.561-3.562 1.967 0 3.561 1.595 3.561 3.562M74.973 29.94c0 1.967-1.594 3.561-3.561 3.561-1.966 0-3.56-1.594-3.56-3.561 0-1.967 1.594-3.562 3.56-3.562 1.967 0 3.561 1.595 3.561 3.562M90.052 29.94c0 1.967-1.594 3.561-3.561 3.561-1.966 0-3.56-1.594-3.56-3.561 0-1.967 1.594-3.562 3.56-3.562 1.967 0 3.561 1.595 3.561 3.562M7.121 43.129c0 1.966-1.594 3.561-3.561 3.561-1.966 0-3.56-1.595-3.56-3.561 0-1.967 1.594-3.563 3.56-3.563 1.967 0 3.561 1.596 3.561 3.563M22.2 43.129c0 1.966-1.594 3.561-3.561 3.561-1.966 0-3.561-1.595-3.561-3.561 0-1.967 1.595-3.563 3.561-3.563 1.967 0 3.561 1.596 3.561 3.563M37.278 43.129c0 1.966-1.594 3.561-3.561 3.561-1.966 0-3.561-1.595-3.561-3.561 0-1.967 1.595-3.563 3.561-3.563 1.967 0 3.561 1.596 3.561 3.563M52.356 43.129c0 1.966-1.594 3.561-3.561 3.561-1.966 0-3.56-1.595-3.56-3.561 0-1.967 1.594-3.563 3.56-3.563 1.967 0 3.561 1.596 3.561 3.563M67.434 43.129c0 1.966-1.594 3.561-3.561 3.561-1.966 0-3.561-1.595-3.561-3.561 0-1.967 1.595-3.563 3.561-3.563 1.967 0 3.561 1.596 3.561 3.563M82.513 43.129c0 1.966-1.594 3.561-3.561 3.561-1.966 0-3.56-1.595-3.56-3.561 0-1.967 1.594-3.563 3.56-3.563 1.967 0 3.561 1.596 3.561 3.563M97.591 43.129c0 1.966-1.594 3.561-3.561 3.561-1.966 0-3.561-1.595-3.561-3.561 0-1.967 1.595-3.563 3.561-3.563 1.967 0 3.561 1.596 3.561 3.563M14.66 56.318c0 1.967-1.594 3.561-3.561 3.561-1.966 0-3.56-1.594-3.56-3.561 0-1.967 1.594-3.562 3.56-3.562 1.967 0 3.561 1.595 3.561 3.562M29.739 56.318c0 1.967-1.594 3.561-3.561 3.561-1.966 0-3.561-1.594-3.561-3.561 0-1.967 1.595-3.562 3.561-3.562 1.967 0 3.561 1.595 3.561 3.562M44.817 56.318c0 1.967-1.594 3.561-3.561 3.561-1.966 0-3.56-1.594-3.56-3.561 0-1.967 1.594-3.562 3.56-3.562 1.967 0 3.561 1.595 3.561 3.562M59.895 56.318c0 1.967-1.594 3.561-3.561 3.561-1.966 0-3.561-1.594-3.561-3.561 0-1.967 1.595-3.562 3.561-3.562 1.967 0 3.561 1.595 3.561 3.562M74.973 56.318c0 1.967-1.594 3.561-3.561 3.561-1.966 0-3.56-1.594-3.56-3.561 0-1.967 1.594-3.562 3.56-3.562 1.967 0 3.561 1.595 3.561 3.562M90.052 56.318c0 1.967-1.594 3.561-3.561 3.561-1.966 0-3.56-1.594-3.56-3.561 0-1.967 1.594-3.562 3.56-3.562 1.967 0 3.561 1.595 3.561 3.562M7.121 69.507c0 1.966-1.594 3.561-3.561 3.561-1.966 0-3.56-1.595-3.56-3.561 0-1.967 1.594-3.562 3.56-3.562 1.967 0 3.561 1.595 3.561 3.562M22.2 69.507c0 1.966-1.594 3.561-3.561 3.561-1.966 0-3.561-1.595-3.561-3.561 0-1.967 1.595-3.562 3.561-3.562 1.967 0 3.561 1.595 3.561 3.562M37.278 69.507c0 1.966-1.594 3.561-3.561 3.561-1.966 0-3.561-1.595-3.561-3.561 0-1.967 1.595-3.562 3.561-3.562 1.967 0 3.561 1.595 3.561 3.562M52.356 69.507c0 1.966-1.594 3.561-3.561 3.561-1.966 0-3.56-1.595-3.56-3.561 0-1.967 1.594-3.562 3.56-3.562 1.967 0 3.561 1.595 3.561 3.562M67.434 69.507c0 1.966-1.594 3.561-3.561 3.561-1.966 0-3.561-1.595-3.561-3.561 0-1.967 1.595-3.562 3.561-3.562 1.967 0 3.561 1.595 3.561 3.562M82.513 69.507c0 1.966-1.594 3.561-3.561 3.561-1.966 0-3.56-1.595-3.56-3.561 0-1.967 1.594-3.562 3.56-3.562 1.967 0 3.561 1.595 3.561 3.562M97.591 69.507c0 1.966-1.594 3.561-3.561 3.561-1.966 0-3.561-1.595-3.561-3.561 0-1.967 1.595-3.562 3.561-3.562 1.967 0 3.561 1.595 3.561 3.562M14.66 82.696c0 1.967-1.594 3.561-3.561 3.561-1.966 0-3.56-1.594-3.56-3.561 0-1.966 1.594-3.562 3.56-3.562 1.967 0 3.561 1.596 3.561 3.562M29.739 82.696c0 1.967-1.594 3.561-3.561 3.561-1.966 0-3.561-1.594-3.561-3.561 0-1.966 1.595-3.562 3.561-3.562 1.967 0 3.561 1.596 3.561 3.562M44.817 82.696c0 1.967-1.594 3.561-3.561 3.561-1.966 0-3.56-1.594-3.56-3.561 0-1.966 1.594-3.562 3.56-3.562 1.967 0 3.561 1.596 3.561 3.562M59.895 82.696c0 1.967-1.594 3.561-3.561 3.561-1.966 0-3.561-1.594-3.561-3.561 0-1.966 1.595-3.562 3.561-3.562 1.967 0 3.561 1.596 3.561 3.562M74.973 82.696c0 1.967-1.594 3.561-3.561 3.561-1.966 0-3.56-1.594-3.56-3.561 0-1.966 1.594-3.562 3.56-3.562 1.967 0 3.561 1.596 3.561 3.562M90.052 82.696c0 1.967-1.594 3.561-3.561 3.561-1.966 0-3.56-1.594-3.56-3.561 0-1.966 1.594-3.562 3.56-3.562 1.967 0 3.561 1.596 3.561 3.562M7.121 95.885c0 1.966-1.594 3.561-3.561 3.561-1.966 0-3.56-1.595-3.56-3.561 0-1.967 1.594-3.562 3.56-3.562 1.967 0 3.561 1.595 3.561 3.562M22.2 95.885c0 1.966-1.594 3.561-3.561 3.561-1.966 0-3.561-1.595-3.561-3.561 0-1.967 1.595-3.562 3.561-3.562 1.967 0 3.561 1.595 3.561 3.562M37.278 95.885c0 1.966-1.594 3.561-3.561 3.561-1.966 0-3.561-1.595-3.561-3.561 0-1.967 1.595-3.562 3.561-3.562 1.967 0 3.561 1.595 3.561 3.562M52.356 95.885c0 1.966-1.594 3.561-3.561 3.561-1.966 0-3.56-1.595-3.56-3.561 0-1.967 1.594-3.562 3.56-3.562 1.967 0 3.561 1.595 3.561 3.562M67.434 95.885c0 1.966-1.594 3.561-3.561 3.561-1.966 0-3.561-1.595-3.561-3.561 0-1.967 1.595-3.562 3.561-3.562 1.967 0 3.561 1.595 3.561 3.562M82.513 95.885c0 1.966-1.594 3.561-3.561 3.561-1.966 0-3.56-1.595-3.56-3.561 0-1.967 1.594-3.562 3.56-3.562 1.967 0 3.561 1.595 3.561 3.562M97.591 95.885c0 1.966-1.594 3.561-3.561 3.561-1.966 0-3.561-1.595-3.561-3.561 0-1.967 1.595-3.562 3.561-3.562 1.967 0 3.561 1.595 3.561 3.562" style="fill:#fff;fill-rule:nonzero"/></g></svg>