<svg viewBox="0 0 93 93" xmlns="http://www.w3.org/2000/svg" xml:space="preserve" style="fill-rule:evenodd;clip-rule:evenodd;stroke-linejoin:round;stroke-miterlimit:2"><path style="fill:#231f20" d="M0 0h92.344v92.342H0z"/><path d="M15.512 66.86h-3.346v-3.346H9.989v3.346H6.641v2.179h3.348v3.345h2.177v-3.345h3.346V66.86ZM29.551 66.86h-3.348v-3.346h-2.177v3.346H20.68v2.179h3.346v3.345h2.177v-3.345h3.348V66.86ZM43.59 66.86h-3.348v-3.346h-2.177v3.346h-3.346v2.179h3.346v3.345h2.177v-3.345h3.348V66.86ZM57.627 66.86h-3.346v-3.346h-2.179v3.346h-3.346v2.179h3.346v3.345h2.179v-3.345h3.346V66.86ZM71.666 66.86h-3.348v-3.346h-2.177v3.346h-3.346v2.179h3.346v3.345h2.177v-3.345h3.348V66.86ZM85.705 66.86h-3.348v-3.346H80.18v3.346h-3.346v2.179h3.346v3.345h2.177v-3.345h3.348V66.86ZM15.512 81.379h-3.346v-3.348H9.989v3.348H6.641v2.179h3.348v3.344h2.177v-3.344h3.346v-2.179ZM29.551 81.379h-3.348v-3.348h-2.177v3.348H20.68v2.179h3.346v3.344h2.177v-3.344h3.348v-2.179ZM43.59 81.379h-3.348v-3.348h-2.177v3.348h-3.346v2.179h3.346v3.344h2.177v-3.344h3.348v-2.179ZM57.627 81.379h-3.346v-3.348h-2.179v3.348h-3.346v2.179h3.346v3.344h2.179v-3.344h3.346v-2.179ZM71.666 81.379h-3.348v-3.348h-2.177v3.348h-3.346v2.179h3.346v3.344h2.177v-3.344h3.348v-2.179ZM85.705 81.379h-3.348v-3.348H80.18v3.348h-3.346v2.179h3.346v3.344h2.177v-3.344h3.348v-2.179ZM15.512 37.822h-3.346v-3.348H9.989v3.348H6.641v2.179h3.348v3.344h2.177v-3.344h3.346v-2.179ZM29.551 37.822h-3.348v-3.348h-2.177v3.348H20.68v2.179h3.346v3.344h2.177v-3.344h3.348v-2.179ZM43.59 37.822h-3.348v-3.348h-2.177v3.348h-3.346v2.179h3.346v3.344h2.177v-3.344h3.348v-2.179ZM57.627 37.822h-3.346v-3.348h-2.179v3.348h-3.346v2.179h3.346v3.344h2.179v-3.344h3.346v-2.179ZM71.666 37.822h-3.348v-3.348h-2.177v3.348h-3.346v2.179h3.346v3.344h2.177v-3.344h3.348v-2.179ZM85.705 37.822h-3.348v-3.348H80.18v3.348h-3.346v2.179h3.346v3.344h2.177v-3.344h3.348v-2.179ZM15.512 52.341h-3.346v-3.347H9.989v3.347H6.641v2.179h3.348v3.345h2.177V54.52h3.346v-2.179ZM29.551 52.341h-3.348v-3.347h-2.177v3.347H20.68v2.179h3.346v3.345h2.177V54.52h3.348v-2.179ZM43.59 52.341h-3.348v-3.347h-2.177v3.347h-3.346v2.179h3.346v3.345h2.177V54.52h3.348v-2.179ZM57.627 52.341h-3.346v-3.347h-2.179v3.347h-3.346v2.179h3.346v3.345h2.179V54.52h3.346v-2.179ZM71.666 52.341h-3.348v-3.347h-2.177v3.347h-3.346v2.179h3.346v3.345h2.177V54.52h3.348v-2.179ZM85.705 52.341h-3.348v-3.347H80.18v3.347h-3.346v2.179h3.346v3.345h2.177V54.52h3.348v-2.179ZM15.512 8.784h-3.346V5.437H9.989v3.347H6.641v2.179h3.348v3.345h2.177v-3.345h3.346V8.784ZM29.551 8.784h-3.348V5.437h-2.177v3.347H20.68v2.179h3.346v3.345h2.177v-3.345h3.348V8.784ZM43.59 8.784h-3.348V5.437h-2.177v3.347h-3.346v2.179h3.346v3.345h2.177v-3.345h3.348V8.784ZM57.627 8.784h-3.346V5.437h-2.179v3.347h-3.346v2.179h3.346v3.345h2.179v-3.345h3.346V8.784ZM71.666 8.784h-3.348V5.437h-2.177v3.347h-3.346v2.179h3.346v3.345h2.177v-3.345h3.348V8.784ZM85.705 8.784h-3.348V5.437H80.18v3.347h-3.346v2.179h3.346v3.345h2.177v-3.345h3.348V8.784ZM15.512 23.303h-3.346v-3.346H9.989v3.346H6.641v2.18h3.348v3.344h2.177v-3.344h3.346v-2.18ZM29.551 23.303h-3.348v-3.346h-2.177v3.346H20.68v2.18h3.346v3.344h2.177v-3.344h3.348v-2.18ZM43.59 23.303h-3.348v-3.346h-2.177v3.346h-3.346v2.18h3.346v3.344h2.177v-3.344h3.348v-2.18ZM57.627 23.303h-3.346v-3.346h-2.179v3.346h-3.346v2.18h3.346v3.344h2.179v-3.344h3.346v-2.18ZM71.666 23.303h-3.348v-3.346h-2.177v3.346h-3.346v2.18h3.346v3.344h2.177v-3.344h3.348v-2.18ZM85.705 23.303h-3.348v-3.346H80.18v3.346h-3.346v2.18h3.346v3.344h2.177v-3.344h3.348v-2.18Z" style="fill:#fff;fill-rule:nonzero"/></svg>