<svg viewBox="0 0 93 93" xmlns="http://www.w3.org/2000/svg" xml:space="preserve" style="fill-rule:evenodd;clip-rule:evenodd;stroke-linejoin:round;stroke-miterlimit:2"><path style="fill:#231f20" d="M0 0h92.342v92.343H0z"/><path d="M.564 7.674 4.769.15l4.207 7.524H.564ZM17.18 7.674 21.387.15l4.205 7.524H17.18ZM33.797 7.674 38.002.15l4.207 7.524h-8.412ZM50.414 7.674 54.619.15l4.205 7.524h-8.41ZM67.029 7.674 71.236.15l4.205 7.524h-8.412ZM83.646 7.674 87.853.15l4.205 7.524h-8.412ZM8.873 21.839l4.205-7.525 4.205 7.525h-8.41ZM25.488 21.839l4.207-7.525 4.205 7.525h-8.412ZM42.105 21.839l4.205-7.525 4.207 7.525h-8.412ZM58.723 21.839l4.205-7.525 4.205 7.525h-8.41ZM75.338 21.839l4.207-7.525 4.205 7.525h-8.412ZM91.955 21.839h.387v-.693l-.387.693ZM.564 36.003l4.205-7.525 4.207 7.525H.564ZM17.18 36.003l4.207-7.525 4.205 7.525H17.18ZM33.797 36.003l4.205-7.525 4.207 7.525h-8.412ZM50.414 36.003l4.205-7.525 4.205 7.525h-8.41ZM67.029 36.003l4.207-7.525 4.205 7.525h-8.412ZM83.646 36.003l4.207-7.525 4.205 7.525h-8.412ZM8.873 50.167l4.205-7.524 4.205 7.524h-8.41ZM25.488 50.167l4.207-7.524 4.205 7.524h-8.412ZM42.105 50.167l4.205-7.524 4.207 7.524h-8.412ZM58.723 50.167l4.205-7.524 4.205 7.524h-8.41ZM75.338 50.167l4.207-7.524 4.205 7.524h-8.412ZM91.955 50.167h.387v-.692l-.387.692ZM.564 64.332l4.205-7.525 4.207 7.525H.564ZM17.18 64.332l4.207-7.525 4.205 7.525H17.18ZM33.797 64.332l4.205-7.525 4.207 7.525h-8.412ZM50.414 64.332l4.205-7.525 4.205 7.525h-8.41ZM67.029 64.332l4.207-7.525 4.205 7.525h-8.412ZM83.646 64.332l4.207-7.525 4.205 7.525h-8.412ZM8.873 78.496l4.205-7.524 4.205 7.524h-8.41ZM25.488 78.496l4.207-7.524 4.205 7.524h-8.412ZM42.105 78.496l4.205-7.524 4.207 7.524h-8.412ZM58.723 78.496l4.205-7.524 4.205 7.524h-8.41ZM75.338 78.496l4.207-7.524 4.205 7.524h-8.412ZM91.955 78.496h.387v-.693l-.387.693ZM.564 92.661l4.205-7.525 4.207 7.525H.564ZM17.18 92.661l4.207-7.525 4.205 7.525H17.18ZM33.797 92.661l4.205-7.525 4.207 7.525h-8.412ZM50.414 92.661l4.205-7.525 4.205 7.525h-8.41ZM67.029 92.661l4.207-7.525 4.205 7.525h-8.412ZM83.646 92.661l4.207-7.525 4.205 7.525h-8.412Z" style="fill:#fff;fill-rule:nonzero"/></svg>