<svg viewBox="0 0 113 113" xmlns="http://www.w3.org/2000/svg" xml:space="preserve" style="fill-rule:evenodd;clip-rule:evenodd;stroke-miterlimit:10"><path style="fill:#231f20" d="M10.09 10.048h92.342v92.343H10.09z"/><path d="M22.458 102.432V10.05v92.382Z" style="fill:#231f20;fill-rule:nonzero"/><path d="M22.459 10.05v92.382" style="fill:none;fill-rule:nonzero;stroke:#fff;stroke-width:2px"/><path d="M35.916 102.432V10.05v92.382Z" style="fill:#231f20;fill-rule:nonzero"/><path d="M35.916 10.05v92.382" style="fill:none;fill-rule:nonzero;stroke:#fff;stroke-width:2px"/><path d="M49.373 102.432V10.05v92.382Z" style="fill:#231f20;fill-rule:nonzero"/><path d="M49.373 10.05v92.382" style="fill:none;fill-rule:nonzero;stroke:#fff;stroke-width:2px"/><path d="M62.831 102.432V10.05v92.382Z" style="fill:#231f20;fill-rule:nonzero"/><path d="M62.831 10.05v92.382" style="fill:none;fill-rule:nonzero;stroke:#fff;stroke-width:2px"/><path d="M76.287 102.432V10.05v92.382Z" style="fill:#231f20;fill-rule:nonzero"/><path d="M76.288 10.05v92.382" style="fill:none;fill-rule:nonzero;stroke:#fff;stroke-width:2px"/><path d="M89.745 102.432V10.05v92.382Z" style="fill:#231f20;fill-rule:nonzero"/><path d="M89.745 10.05v92.382" style="fill:none;fill-rule:nonzero;stroke:#fff;stroke-width:2px"/><path d="M10.05 22.497h92.105H10.05Z" style="fill:#231f20;fill-rule:nonzero"/><path d="M102.155 22.497H10.05" style="fill:none;fill-rule:nonzero;stroke:#fff;stroke-width:2px"/><path d="M10.05 35.994h92.105H10.05Z" style="fill:#231f20;fill-rule:nonzero"/><path d="M102.155 35.994H10.05" style="fill:none;fill-rule:nonzero;stroke:#fff;stroke-width:2px"/><path d="M10.05 49.492h92.105H10.05Z" style="fill:#231f20;fill-rule:nonzero"/><path d="M102.155 49.492H10.05" style="fill:none;fill-rule:nonzero;stroke:#fff;stroke-width:2px"/><path d="M10.05 62.99h92.105H10.05Z" style="fill:#231f20;fill-rule:nonzero"/><path d="M102.155 62.99H10.05" style="fill:none;fill-rule:nonzero;stroke:#fff;stroke-width:2px"/><path d="M10.05 76.488h92.105H10.05Z" style="fill:#231f20;fill-rule:nonzero"/><path d="M102.155 76.487H10.05" style="fill:none;fill-rule:nonzero;stroke:#fff;stroke-width:2px"/><path d="M10.05 89.985h92.105H10.05Z" style="fill:#231f20;fill-rule:nonzero"/><path d="M102.155 89.985H10.05" style="fill:none;fill-rule:nonzero;stroke:#fff;stroke-width:2px"/></svg>